<svg width="260" height="221" viewBox="0 0 260 221" fill="none" xmlns="http://www.w3.org/2000/svg">
<g clip-path="url(#clip0_723_7155)">
<path d="M250.642 180.837H9.35838C4.19826 180.837 0 176.624 0 171.446V142.302H260V171.446C260 176.624 255.802 180.837 250.642 180.837Z" fill="#E6E6E6"/>
<path d="M161.227 175.962H99.6973V220.069H161.227V175.962Z" fill="#E6E6E6"/>
<path d="M164.928 214.498H95.9961V220.069H164.928V214.498Z" fill="#E6E6E6"/>
<path d="M259.769 154.605H0V6.44507C0 2.89133 2.88107 0 6.4222 0H253.346C256.888 0 259.769 2.89133 259.769 6.44507V154.605Z" fill="#3F3D56"/>
<path d="M253.523 6.73206H6.01465V146.481H253.523V6.73206Z" fill="white"/>
<path d="M53.9476 90.0259C55.842 88.455 58.1852 88.1626 59.1811 89.3727C60.1771 90.5827 59.4487 92.8366 57.5534 94.4078C56.8049 95.0459 55.915 95.4948 54.9582 95.7169L46.8479 102.271L43.8643 98.386L52.1764 92.3373C52.5744 91.4359 53.1817 90.6433 53.9476 90.0259Z" fill="#FFB6B6"/>
<path d="M7.07066 104.814C7.06655 104.524 7.06926 101.996 8.93442 100.398C11.077 98.5619 14.1002 99.3049 15.1606 99.5655C17.6101 100.168 17.811 101.222 20.1114 102.306C24.4151 104.333 19.0227 103.295 21.5835 102.645C22.47 102.42 35.2223 101.533 38.3966 99.5718C44.5703 95.7585 48.7768 93.4462 48.7768 93.4462L51.5266 98.9655C51.5266 98.9655 47.5503 104.514 41.954 108.625C36.2134 112.841 33.3431 114.95 28.9811 115.764C28.6054 115.834 19.3669 117.417 11.9261 111.838C10.2288 110.566 7.11912 108.234 7.07066 104.814Z" fill="#EA9A3D"/>
<path d="M15.6009 90.7769C20.8915 90.7769 25.1804 86.4728 25.1804 81.1634C25.1804 75.854 20.8915 71.5498 15.6009 71.5498C10.3103 71.5498 6.02148 75.854 6.02148 81.1634C6.02148 86.4728 10.3103 90.7769 15.6009 90.7769Z" fill="#FFB6B6"/>
<path d="M90.6232 145.751L80.7577 135.617L75.665 140.948L83.0152 150.665L90.3059 151.502L90.6232 145.751Z" fill="#FFB6B6"/>
<path d="M34.2911 126.747C34.8681 126.795 36.7018 127.163 38.4545 126.196C39.6506 125.535 40.2641 124.553 40.4713 124.241C43.0418 120.367 52.9079 114.325 61.7626 113.953C63.7678 113.869 65.0877 114.102 66.2873 114.73C67.9884 115.62 68.6675 116.894 70.8261 119.88C72.0069 121.514 73.3134 123.053 74.5084 124.675C81.5046 134.177 84.1569 134.923 83.8858 137.969C83.585 141.349 79.953 144.555 77.539 144.185C76.5504 144.033 76.1675 143.343 74.8467 141.947C70.974 137.852 69.3717 138.609 66.6144 135.472C63.3953 131.81 63.8167 128.774 62.1372 128.657C60.5797 128.548 59.9178 131.138 56.5927 134.579C55.0713 136.154 53.9878 136.876 50.687 139.174C37.8329 148.123 37.6277 148.752 35.0336 149.466C33.8987 149.778 25.8432 151.994 22.9736 148.467C18.483 142.948 29.0917 126.313 34.2911 126.747Z" fill="#2F2E41"/>
<path d="M87.6075 148.041C88.3331 147.714 89.1815 147.332 89.4544 146.453C89.6391 145.858 89.5327 145.124 89.151 144.618C88.7105 144.033 88.0585 143.956 88.0849 143.852C88.1251 143.695 89.6668 143.756 91.3592 144.357C91.6786 144.47 93.1254 145 94.9658 146.442C96.4404 147.598 96.242 147.829 97.1666 148.495C100.005 150.54 102.667 148.929 104.203 150.846C104.796 151.586 105.049 152.637 104.799 153.487C104.298 155.193 101.862 155.78 100.531 156.083C97.3242 156.813 94.8972 156.217 92.3629 155.789C83.7444 154.331 78.902 155.659 78.2538 153.655C78.1312 153.276 78.3305 153.308 78.995 150.525C79.6509 147.778 79.6293 147.024 80.1879 146.804C81.0288 146.473 81.5934 147.979 83.7115 148.494C85.5885 148.951 87.1374 148.253 87.6075 148.041Z" fill="#2F2E41"/>
<path d="M73.084 178.905L70.5915 164.959L63.3945 166.501L64.0393 178.683L69.6037 183.484L73.084 178.905Z" fill="#FFB6B6"/>
<path d="M37.1056 131.434C37.5561 131.799 38.8671 133.137 40.8589 133.324C42.2182 133.452 43.2753 132.985 43.6215 132.844C47.9163 131.086 59.4606 131.647 66.9954 136.329C68.7017 137.39 69.6634 138.326 70.3049 139.522C71.2145 141.217 71.0632 142.654 71.1786 146.341C71.2416 148.358 71.4617 150.368 71.5424 152.384C72.0149 164.189 73.7922 166.301 71.8634 168.668C69.7235 171.296 64.924 171.902 63.1336 170.235C62.4004 169.553 62.4696 168.766 62.1582 166.866C61.2449 161.295 59.4958 161.019 58.9693 156.869C58.3546 152.025 60.4022 149.75 59.0781 148.707C57.8502 147.739 55.8532 149.51 51.1765 150.483C49.0366 150.928 47.7359 150.915 43.7188 150.957C28.0752 151.118 27.5535 151.523 25.0076 150.652C23.8938 150.27 15.9881 147.565 15.5872 143.029C14.9599 135.931 33.0459 128.145 37.1056 131.434Z" fill="#2F2E41"/>
<path d="M69.3075 179.1C70.0908 179.238 71.0067 179.4 71.7245 178.827C72.2102 178.438 72.5326 177.772 72.5003 177.137C72.4631 176.405 71.9667 175.974 72.0465 175.903C72.1679 175.795 73.4091 176.715 74.4735 178.165C74.6744 178.439 75.5747 179.694 76.2908 181.924C76.8645 183.711 76.5707 183.791 76.9631 184.863C78.1675 188.154 81.2721 188.321 81.4699 190.773C81.5463 191.72 81.1675 192.732 80.4857 193.294C79.1165 194.424 76.7722 193.537 75.5009 193.037C72.4392 191.834 70.7645 189.973 68.9073 188.191C62.5914 182.128 57.8418 180.497 58.4267 178.474C58.5374 178.091 58.6842 178.23 60.7913 176.302C62.871 174.399 63.2752 173.762 63.8605 173.895C64.7415 174.095 64.366 175.659 65.8302 177.279C67.1278 178.715 68.7999 179.01 69.3075 179.1Z" fill="#2F2E41"/>
<path d="M16.9071 83.0012C17.28 81.6624 16.8116 81.1745 17.289 80.5736C17.289 80.5736 17.4811 80.3318 19.1987 79.6792C18.692 76.7284 19.0714 76.2295 19.0714 76.2295C19.5087 75.6544 20.3848 75.5154 20.9812 75.5906C22.2425 75.7497 22.4658 76.894 23.2728 76.8683C24.3877 76.8328 25.7249 74.5931 25.3099 72.6519C24.9713 71.0685 23.5115 69.8925 23.1455 70.0966C22.7827 70.2989 21.4765 69.4067 20.9812 69.5855C20.6429 69.7076 19.0505 69.5452 18.6895 69.7133C18.2952 69.8968 17.166 71.0399 17.0581 70.8958C16.3078 69.8951 16.3238 69.5456 15.8885 69.3299C15.1173 68.9478 14.2788 69.6542 12.833 70.3521C9.85818 71.7881 8.98711 70.9315 7.61305 72.1409C6.91894 72.7518 6.54673 73.9193 5.83063 76.2295C4.82918 79.4602 4.32846 81.0755 4.81211 82.6179C5.30535 84.1908 6.0317 83.8485 7.10379 86.0677C8.29719 88.538 7.88587 89.9738 9.01352 90.5396C9.88504 90.9768 11.2856 90.6985 11.8145 89.9007C12.7198 88.5348 10.3797 86.6871 11.1779 84.5344C11.6678 83.2131 13.1793 82.2111 14.1061 82.4901C15.1542 82.8056 15.2313 84.6914 15.8886 84.6622C16.4513 84.6372 16.8421 83.2345 16.9071 83.0012Z" fill="#2F2E41"/>
<path d="M9.65038 92.2006C11.6107 89.9948 19.5954 92.2778 20.3449 95.7781C20.6531 97.2178 19.5151 97.8257 19.8356 99.4834C20.3043 101.908 22.9583 101.743 24.9282 104.211C27.7249 107.715 24.8438 111.14 27.9838 116.988C28.6548 118.237 29.2203 119.29 30.4028 120.31C33.1162 122.649 35.6415 121.847 37.0232 124.015C38.0564 125.637 37.6319 127.635 37.5324 128.104C37.1247 130.024 36.0195 130.491 35.2408 132.064C33.9451 134.682 35.4121 136.603 35.4954 139.731C35.5996 143.643 33.5278 149.067 29.3843 150.846C24.7292 152.846 19.1149 149.535 16.3981 146.247C14.777 144.285 14.3064 142.475 13.5972 140.242C10.4275 130.259 8.63679 131.162 6.21286 123.248C3.44186 114.202 2.89712 103.604 6.21286 100.25C6.65235 99.8055 7.86182 98.7781 8.63185 96.928C9.66803 94.4386 8.77287 93.188 9.65038 92.2006Z" fill="#EA9A3D"/>
<path d="M38.6155 143.548C40.1353 145.486 40.3709 147.844 39.1418 148.815C37.9127 149.785 35.6847 149.001 34.1646 147.062C33.5468 146.296 33.1208 145.392 32.9222 144.427L26.5859 136.134L29.86 133.628L36.3551 141.716C37.2435 142.137 38.0186 142.765 38.6155 143.548Z" fill="#FFB6B6"/>
<path d="M15.4096 100.607C15.6915 100.544 18.1585 100.031 20.0979 101.537C22.3258 103.267 22.2179 106.389 22.1801 107.484C22.0926 110.013 21.1049 110.426 20.5174 112.907C19.4181 117.549 21.5116 121.863 22.6682 124.246C23.0686 125.071 24.3548 127.595 26.9151 130.314C31.8946 135.601 36.3376 138.383 36.3376 138.383L31.5646 142.641C31.5646 142.641 23.9617 140.315 18.81 135.656C13.5255 130.876 5.39888 113.966 3.71422 109.847C3.56914 109.492 5.62421 115.259 9.54809 106.811C10.4431 104.883 12.083 101.353 15.4096 100.607Z" fill="#EA9A3D"/>
<path d="M137.571 96.6405L131.872 93.9313C134.21 97.2049 136.224 102.318 137.302 106.386C139.128 102.596 142.071 97.9593 144.984 95.1895L138.961 96.7445C142.672 78.4901 156.632 65.3853 172.618 65.3853L172.844 64.726C156.146 64.726 141.36 77.6491 137.571 96.6405Z" fill="#3F3D56"/>
<path d="M163.801 124.454H127.793C126.266 124.454 125.023 123.207 125.023 121.675C125.023 120.142 126.266 118.895 127.793 118.895H163.801C165.329 118.895 166.571 120.142 166.571 121.675C166.571 123.207 165.329 124.454 163.801 124.454Z" fill="#EA9A3D"/>
<path d="M211.714 124.454H175.706C174.179 124.454 172.937 123.207 172.937 121.675C172.937 120.142 174.179 118.895 175.706 118.895H211.714C213.242 118.895 214.484 120.142 214.484 121.675C214.484 123.207 213.242 124.454 211.714 124.454Z" fill="#E6E6E6"/>
<path d="M190.398 48.8346H155.396C154.514 48.8346 153.796 48.114 153.796 47.2285C153.796 46.3429 154.514 45.6227 155.396 45.6227H190.398C191.28 45.6227 191.998 46.3429 191.998 47.2285C191.998 48.114 191.28 48.8346 190.398 48.8346Z" fill="#3F3D56"/>
<path d="M209.18 65.9691H136.614C135.732 65.9691 135.014 65.2485 135.014 64.363C135.014 63.4774 135.732 62.7572 136.614 62.7572H209.18C210.062 62.7572 210.78 63.4774 210.78 64.363C210.78 65.2486 210.062 65.9691 209.18 65.9691Z" fill="#3F3D56"/>
<path d="M15.7334 220.48C15.7334 220.768 15.9643 221 16.2518 221H243.748C244.036 221 244.267 220.768 244.267 220.48C244.267 220.191 244.036 219.96 243.748 219.96H16.2518C15.9643 219.96 15.7334 220.191 15.7334 220.48Z" fill="#3F3D56"/>
<path d="M71.5951 97.1717C71.5334 97.1717 71.4719 97.1694 71.4099 97.1655C67.7647 96.9306 55.2915 95.1594 47.8452 82.2386C47.2315 81.1747 47.3525 79.8222 48.1458 78.8734L61.9362 62.3842C62.5001 61.7099 63.3712 61.3214 64.2535 61.3321C64.8633 61.3466 66.3071 61.5012 66.5876 62.6182C68.2442 69.2173 75.2394 76.9764 83.6522 78.0049C84.505 78.109 85.1895 78.8724 85.4833 80.0471C85.7126 80.9615 85.5008 81.9041 84.902 82.6332L73.8547 96.0958C73.2935 96.7796 72.47 97.1717 71.5951 97.1717ZM64.2006 61.9954C63.5267 61.9954 62.8712 62.2984 62.4428 62.8107L48.6526 79.2998C48.0371 80.0357 47.9429 81.083 48.4175 81.9061C55.6997 94.5421 67.8899 96.2734 71.4526 96.5032C72.18 96.5521 72.8786 96.241 73.3442 95.6739L84.3916 82.2113C84.8554 81.6465 85.0195 80.9168 84.8421 80.2088C84.6687 79.5156 84.2439 78.7457 83.5721 78.6634C74.8813 77.6012 67.6563 69.5919 65.9463 62.7802C65.8078 62.2287 64.9739 62.0132 64.2398 61.9957C64.2267 61.9954 64.2137 61.9954 64.2006 61.9954Z" fill="#3F3D56"/>
<path d="M56.2016 82.7813L66.1439 72.6079C66.8235 71.9125 65.7587 70.8422 65.0783 71.5385L55.136 81.7119C54.4564 82.4073 55.5212 83.4775 56.2016 82.7813Z" fill="#E6E6E6"/>
<path d="M62.2031 85.6474C64.9471 83.1792 67.3315 80.3214 69.284 77.1856C69.7994 76.3579 68.4961 75.5978 67.9828 76.4223C66.0951 79.454 63.79 82.1921 61.1375 84.578C60.4138 85.229 61.4825 86.2956 62.2031 85.6474Z" fill="#E6E6E6"/>
<path d="M67.6115 89.0793C70.1097 86.3021 72.2363 83.2025 73.9105 79.859C74.3449 78.9916 73.0453 78.2249 72.6093 79.0957C70.9917 82.3261 68.9602 85.326 66.5459 88.0099C65.8975 88.7308 66.9599 89.8036 67.6115 89.0793Z" fill="#E6E6E6"/>
<path d="M63.3519 70.7642C68.8878 70.7642 73.3756 66.3553 73.3756 60.9167C73.3756 55.4781 68.8878 51.0692 63.3519 51.0692C57.8159 51.0692 53.3281 55.4781 53.3281 60.9167C53.3281 66.3553 57.8159 70.7642 63.3519 70.7642Z" fill="#EA9A3D"/>
<path d="M68.5674 65.588C67.0258 61.7842 65.4841 57.9805 63.9425 54.1767C63.7296 53.6514 63.0626 53.6327 62.8548 54.1767C61.3316 58.1646 60.3362 62.3259 59.8577 66.5687C59.7762 67.2913 60.9048 67.2855 60.9857 66.5687C61.173 64.9084 61.451 63.2605 61.8079 61.6302C63.0782 61.6971 64.3589 61.5541 65.5848 61.2135C66.2164 62.772 66.8481 64.3304 67.4797 65.8889C67.7496 66.5548 68.8412 66.2636 68.5674 65.588ZM62.0636 60.5111C62.4436 58.9504 62.8991 57.4082 63.4276 55.8908L65.1564 60.1564C64.1438 60.4231 63.1082 60.5418 62.0636 60.5111Z" fill="white"/>
</g>
<defs>
<clipPath id="clip0_723_7155">
<rect width="260" height="221" fill="white"/>
</clipPath>
</defs>
</svg>
