<svg width="180" height="102" viewBox="0 0 180 102" fill="none" xmlns="http://www.w3.org/2000/svg">
    <g clip-path="url(#clip0_542_7706)">
        <path d="M75.37 45.27C70.6584 40.5584 68.0115 34.1681 68.0115 27.505C68.0115 20.8418 70.6584 14.4515 75.37 9.73997C80.0816 5.02839 86.4718 2.38146 93.135 2.38146C99.7981 2.38146 106.188 5.02839 110.9 9.73997L118.21 17.05L125.51 9.73997C130.222 5.02574 136.613 2.37627 143.278 2.37439C149.943 2.37252 156.336 5.01839 161.05 9.72997C165.764 14.4415 168.414 20.8329 168.416 27.4979C168.417 34.1629 165.772 40.5557 161.06 45.27L155.43 50.91L118.22 88.12L75.37 45.27Z" fill="#F24E1E"/>
        <path d="M168.41 27.51C168.417 30.8088 167.771 34.0764 166.51 37.1245C165.249 40.1727 163.396 42.941 161.06 45.27L155.42 50.92L118.23 88.13L75.37 45.27C70.6584 40.5584 68.0115 34.1681 68.0115 27.505C68.0115 20.8418 70.6584 14.4515 75.37 9.73996C80.0816 5.02839 86.4718 2.38146 93.135 2.38146C99.7981 2.38146 106.188 5.02839 110.9 9.73996L118.2 17.04L125.52 9.73996C127.854 7.40631 130.624 5.55514 133.673 4.29217C136.722 3.0292 139.99 2.37915 143.29 2.37915C146.59 2.37915 149.858 3.0292 152.907 4.29217C155.956 5.55514 158.726 7.40631 161.06 9.73996C161.46 10.14 161.85 10.56 162.21 10.99C166.223 15.5557 168.428 21.4313 168.41 27.51Z" fill="#F24E1E"/>
        <path d="M172 17.27C170.443 15.7387 168.711 14.3962 166.84 13.27C165.72 11.3917 164.377 9.65574 162.84 8.09998C160.286 5.545 157.254 3.51821 153.917 2.1354C150.579 0.752589 147.002 0.0408523 143.39 0.0408523C139.778 0.0408523 136.201 0.752589 132.863 2.1354C129.526 3.51821 126.494 5.545 123.94 8.09998L118.2 13.7L112.58 8.05998C110.027 5.50531 106.996 3.47873 103.659 2.09606C100.323 0.713381 96.7466 0.00170898 93.135 0.00170898C89.5234 0.00170898 85.9472 0.713381 82.6107 2.09606C79.2742 3.47873 76.2429 5.50531 73.69 8.05998C72.8662 8.87212 72.1041 9.74454 71.41 10.67C67.34 8.36998 62.72 6.29998 56.91 6.29998C50 6.29998 45.73 9.11998 41.55 11.88C37.74 14.39 34.11 16.74 28.46 16.74C22.81 16.74 19.16 14.39 15.34 11.88C11.17 9.11998 6.86 6.29998 0 6.29998L0 11C5.44 11 8.82 13.23 12.73 15.78C16.64 18.33 21.37 21.45 28.46 21.45C35.55 21.45 40.12 18.45 44.17 15.78C48.22 13.11 51.47 11 56.91 11C61.49 11 65.27 12.64 68.82 14.62C67.2865 17.5107 66.2871 20.6544 65.87 23.9C63.005 22.7653 59.9515 22.1817 56.87 22.18C50 22.18 45.69 25.01 41.51 27.75C37.7 30.25 34.07 32.63 28.42 32.63C22.77 32.63 19.12 30.25 15.3 27.75C11.17 25.05 6.86 22.22 0 22.22L0 27C5.44 27 8.82 29.22 12.73 31.78C16.64 34.34 21.37 37.45 28.46 37.45C35.55 37.45 40.12 34.45 44.17 31.78C48.22 29.11 51.47 27 56.91 27C59.9461 27.0305 62.9402 27.7126 65.69 29C65.9133 33.3928 67.1928 37.667 69.42 41.46C65.5856 39.3448 61.2887 38.2079 56.91 38.15C50 38.14 45.73 41 41.55 43.72C37.74 46.22 34.11 48.6 28.46 48.6C22.81 48.6 19.16 46.22 15.34 43.72C11.17 41 6.86 38.14 0 38.14L0 42.9C5.44 42.9 8.82 45.12 12.73 47.68C16.64 50.24 21.37 53.34 28.46 53.34C35.55 53.34 40.12 50.34 44.17 47.68C48.22 45.02 51.47 42.9 56.91 42.9C62.91 42.9 67.47 45.65 71.91 48.32C74.0462 49.678 76.2827 50.8714 78.6 51.89L78.71 52L90.19 63.46C88.6612 64.1242 87.0166 64.481 85.35 64.51C81.64 64.51 78.28 62.51 74.35 60.18C69.58 57.32 64.17 54.06 56.9 54.06C50.03 54.06 45.72 56.9 41.54 59.64C37.73 62.15 34.1 64.51 28.45 64.51C22.8 64.51 19.15 62.15 15.33 59.64C11.17 56.9 6.86 54.06 0 54.06L0 58.8C5.44 58.8 8.82 61.04 12.73 63.59C16.64 66.14 21.37 69.26 28.46 69.26C35.55 69.26 40.12 66.26 44.17 63.59C48.22 60.92 51.47 58.8 56.91 58.8C62.91 58.8 67.47 61.58 71.91 64.24C76.04 66.7 80.29 69.24 85.32 69.24C88.2763 69.1647 91.1738 68.3975 93.78 67L99.41 72.63L100.41 73.63C98.97 74.4 97.6 75.22 96.29 76C92.39 78.34 89.03 80.35 85.29 80.35C81.55 80.35 78.22 78.35 74.29 76C69.59 73.23 64.18 70 56.91 70C50 70 45.73 72.83 41.55 75.56C37.74 78.07 34.11 80.44 28.46 80.44C22.81 80.44 19.16 78.07 15.34 75.56C11.17 72.83 6.86 70 0 70L0 74.74C5.44 74.74 8.82 76.96 12.73 79.53C16.64 82.1 21.37 85.2 28.46 85.2C35.55 85.2 40.12 82.2 44.17 79.53C48.22 76.86 51.47 74.74 56.91 74.74C62.91 74.74 67.47 77.51 71.91 80.18C76.04 82.64 80.29 85.18 85.32 85.18C90.35 85.18 94.62 82.62 98.76 80.18C100.44 79.18 102.15 78.18 103.95 77.25L104.04 77.33L112.56 85.87C106.39 86.17 102.33 88.87 98.41 91.41C94.49 93.95 91 96.28 85.35 96.28C81.64 96.28 78.28 94.28 74.35 91.93C69.58 89.07 64.17 85.83 56.9 85.83C50.03 85.83 45.72 88.67 41.54 91.4C37.73 93.91 34.1 96.28 28.45 96.28C22.8 96.28 19.15 93.91 15.33 91.4C11.17 88.67 6.86 85.83 0 85.83L0 90.57C5.44 90.57 8.82 92.8 12.73 95.36C16.64 97.92 21.37 101 28.46 101C35.55 101 40.12 98 44.17 95.33C48.22 92.66 51.47 90.54 56.91 90.54C62.91 90.54 67.47 93.31 71.91 95.98C76.04 98.44 80.29 100.98 85.32 100.98C92.4 100.98 96.98 97.98 101.02 95.31C105.06 92.64 108.33 90.52 113.76 90.52C115.085 90.5219 116.406 90.666 117.7 90.95L118.18 91.43L127.4 100.64L166.33 61.8L172 56.16C177.155 51.0015 180.05 44.0074 180.05 36.715C180.05 29.4226 177.155 22.4285 172 17.27ZM70.79 31.72C69.8492 26.7357 70.5988 21.58 72.92 17.07C73.6488 15.6497 74.5235 14.3091 75.53 13.07C76.0046 12.4755 76.5155 11.9111 77.06 11.38C81.3285 7.1225 87.1112 4.7316 93.14 4.7316C99.1688 4.7316 104.951 7.1225 109.22 11.38L114.85 17L118.2 20.35L121.56 17L127.19 11.37C131.475 7.18883 137.236 4.86464 143.223 4.90102C149.21 4.93741 154.941 7.33143 159.176 11.5644C163.41 15.7973 165.806 21.5282 165.844 27.5152C165.882 33.5023 163.56 39.2633 159.38 43.55L153.76 49.19L118.22 84.77L105.06 71.61L98.06 64.61L96.26 62.8L85.26 51.8L82.6 49.12L81.2 47.73L76.98 43.49C73.7834 40.2759 71.6268 36.1751 70.79 31.72Z" fill="black"/>
        <path d="M105.61 35.23C108.184 35.23 110.27 33.1436 110.27 30.57C110.27 27.9963 108.184 25.91 105.61 25.91C103.036 25.91 100.95 27.9963 100.95 30.57C100.95 33.1436 103.036 35.23 105.61 35.23Z" fill="black"/>
        <path d="M130.83 35.23C133.404 35.23 135.49 33.1436 135.49 30.57C135.49 27.9963 133.404 25.91 130.83 25.91C128.256 25.91 126.17 27.9963 126.17 30.57C126.17 33.1436 128.256 35.23 130.83 35.23Z" fill="black"/>
        <path d="M118.22 61.7499C112.485 61.7776 106.92 59.8074 102.48 56.1778C98.0402 52.5481 95.0029 47.4856 93.89 41.8599C93.8241 41.5318 93.8276 41.1935 93.9002 40.8668C93.9729 40.54 94.113 40.2321 94.3117 39.9628C94.5104 39.6934 94.7633 39.4686 95.054 39.3028C95.3448 39.137 95.667 39.0338 96 38.9999C96.6032 38.9509 97.203 39.1287 97.6821 39.4986C98.1611 39.8685 98.4848 40.4039 98.59 40.9999C99.5223 45.5051 101.979 49.551 105.547 52.4559C109.114 55.3607 113.574 56.9468 118.175 56.9468C122.776 56.9468 127.236 55.3607 130.803 52.4559C134.371 49.551 136.828 45.5051 137.76 40.9999C137.865 40.4039 138.189 39.8685 138.668 39.4986C139.147 39.1287 139.747 38.9509 140.35 38.9999C140.683 39.0308 141.006 39.1304 141.299 39.2924C141.592 39.4545 141.847 39.6754 142.05 39.9414C142.253 40.2073 142.399 40.5124 142.478 40.8375C142.557 41.1625 142.568 41.5005 142.51 41.8299C141.401 47.4526 138.371 52.5147 133.94 56.1489C129.508 59.783 123.951 61.7631 118.22 61.7499Z" fill="black"/>
    </g>
    <defs>
        <clipPath id="clip0_542_7706">
            <rect width="180" height="101.03" fill="white"/>
        </clipPath>
    </defs>
</svg>
