<svg width="159" height="164" viewBox="0 0 159 164" fill="none" xmlns="http://www.w3.org/2000/svg">
    <g clip-path="url(#clip0_542_7702)">
        <path d="M128.181 124.143L101.831 96.4199L115.896 83.0515L142.246 110.775C148.593 117.452 153.052 125.695 155.17 134.661L155.809 137.365C156.056 138.413 155.082 139.339 154.048 139.038L151.38 138.263C142.533 135.693 134.527 130.821 128.181 124.143Z" fill="#FFF4D9" stroke="black" stroke-width="8.4375" stroke-linejoin="round"/>
        <path fill-rule="evenodd" clip-rule="evenodd" d="M104.643 32.161C101.265 35.3713 95.9245 35.2357 92.7142 31.858L75.9197 14.1881C66.0748 3.82989 49.6969 3.41386 39.3387 13.2588L35.1108 17.2773C24.7526 27.1223 24.3366 43.5001 34.1815 53.8583L50.976 71.5283C54.1864 74.9059 54.0507 80.2465 50.673 83.4568L48.2153 85.7928C39.2082 94.3536 38.8465 108.595 47.4073 117.602L56.6093 127.284C59.8196 130.662 65.1602 130.797 68.5379 127.587L149.415 50.7175C152.792 47.5072 152.928 42.1666 149.718 38.7889L140.516 29.1072C131.955 20.1001 117.713 19.7383 108.706 28.2992L104.643 32.161Z" fill="#D27C2C"/>
        <path d="M75.9197 14.1881L78.9776 11.2817L75.9197 14.1881ZM39.3387 13.2588L42.2451 16.3167L42.2451 16.3167L39.3387 13.2588ZM35.1108 17.2773L38.0172 20.3352L38.0172 20.3352L35.1108 17.2773ZM34.1815 53.8583L37.2394 50.9519L37.2394 50.9519L34.1815 53.8583ZM48.2153 85.7928L45.3089 82.7349L45.3089 82.7349L48.2153 85.7928ZM47.4073 117.602L44.3494 120.509L44.3494 120.509L47.4073 117.602ZM140.516 29.1072L143.573 26.2008L143.573 26.2008L140.516 29.1072ZM108.706 28.2992L105.8 25.2413L108.706 28.2992ZM149.415 50.7175L152.321 53.7754L149.415 50.7175ZM149.718 38.7889L146.66 41.6953L149.718 38.7889ZM56.6093 127.284L53.5514 130.19L56.6093 127.284ZM50.976 71.5283L47.9182 74.4346L50.976 71.5283ZM50.673 83.4568L47.7666 80.3989L50.673 83.4568ZM104.643 32.161L107.549 35.2189L104.643 32.161ZM72.8618 17.0944L89.6563 34.7644L95.7721 28.9516L78.9776 11.2817L72.8618 17.0944ZM42.2451 16.3167C50.9145 8.07691 64.622 8.42511 72.8618 17.0944L78.9776 11.2817C67.5275 -0.76533 48.4793 -1.24919 36.4323 10.2009L42.2451 16.3167ZM38.0172 20.3352L42.2451 16.3167L36.4323 10.2009L32.2044 14.2194L38.0172 20.3352ZM37.2394 50.9519C28.9996 42.2826 29.3478 28.575 38.0172 20.3352L32.2044 14.2194C20.1574 25.6695 19.6735 44.7177 31.1236 56.7647L37.2394 50.9519ZM54.0339 68.6219L37.2394 50.9519L31.1236 56.7647L47.9182 74.4346L54.0339 68.6219ZM51.1217 88.8507L53.5794 86.5147L47.7666 80.3989L45.3089 82.7349L51.1217 88.8507ZM50.4652 114.696C43.5095 107.378 43.8035 95.8063 51.1217 88.8507L45.3089 82.7349C34.613 92.9009 34.1834 109.813 44.3494 120.509L50.4652 114.696ZM59.6672 124.378L50.4652 114.696L44.3494 120.509L53.5514 130.19L59.6672 124.378ZM146.508 47.6596L65.6315 124.529L71.4443 130.645L152.321 53.7754L146.508 47.6596ZM137.458 32.0136L146.66 41.6953L152.775 35.8825L143.573 26.2008L137.458 32.0136ZM111.612 31.3571C118.931 24.4014 130.502 24.6953 137.458 32.0136L143.573 26.2008C133.407 15.5049 116.496 15.0753 105.8 25.2413L111.612 31.3571ZM107.549 35.2189L111.612 31.3571L105.8 25.2413L101.736 29.1031L107.549 35.2189ZM152.321 53.7754C157.387 48.9599 157.591 40.949 152.775 35.8825L146.66 41.6953C148.265 43.3841 148.197 46.0544 146.508 47.6596L152.321 53.7754ZM53.5514 130.19C58.3669 135.257 66.3778 135.46 71.4443 130.645L65.6315 124.529C63.9427 126.134 61.2724 126.066 59.6672 124.378L53.5514 130.19ZM47.9182 74.4346C49.5233 76.1235 49.4555 78.7938 47.7666 80.3989L53.5794 86.5147C58.6459 81.6993 58.8494 73.6883 54.0339 68.6219L47.9182 74.4346ZM89.6563 34.7644C94.4718 39.8309 102.483 40.0344 107.549 35.2189L101.736 29.1031C100.048 30.7083 97.3773 30.6405 95.7721 28.9516L89.6563 34.7644Z" fill="black"/>
        <path d="M46.9008 30.3162C41.0634 38.6081 49.3553 44.4456 57.5758 53.0946" stroke="black" stroke-width="8.4375" stroke-linecap="round"/>
    </g>
    <defs>
        <clipPath id="clip0_542_7702">
            <rect width="160" height="154" fill="white" transform="translate(0 159.948) rotate(-88.5449)"/>
        </clipPath>
    </defs>
</svg>
