<svg width="100%" height="100%" viewBox="0 0 386 82" fill="none" xmlns="http://www.w3.org/2000/svg">
<path d="M8.064 44.248H21.72L21.792 46.768H7.944L8.064 44.248ZM11.112 56.872C11.112 57.208 11 57.48 10.776 57.688C10.552 57.896 10.184 58 9.672 58H1.896C1.416 58 1.056 57.896 0.816 57.688C0.576 57.48 0.456 57.208 0.456 56.872C0.456 56.616 0.52 56.408 0.648 56.248C0.792 56.072 1.016 55.896 1.32 55.72L1.968 55.432C2.496 55.176 2.928 54.808 3.264 54.328C3.616 53.848 3.968 53.048 4.32 51.928L11.28 29.56C11.536 28.744 11.608 28.144 11.496 27.76C11.384 27.376 11.056 27.064 10.512 26.824C10.112 26.648 9.824 26.456 9.648 26.248C9.488 26.04 9.408 25.8 9.408 25.528C9.408 25.16 9.528 24.88 9.768 24.688C10.008 24.496 10.376 24.4 10.872 24.4H23.952C24.464 24.4 24.832 24.496 25.056 24.688C25.296 24.88 25.416 25.16 25.416 25.528C25.416 25.832 25.328 26.088 25.152 26.296C24.992 26.488 24.736 26.648 24.384 26.776C23.984 26.936 23.744 27.144 23.664 27.4C23.6 27.656 23.656 28.08 23.832 28.672L31.656 52.888C31.912 53.704 32.168 54.312 32.424 54.712C32.696 55.096 33.064 55.376 33.528 55.552C33.96 55.744 34.248 55.936 34.392 56.128C34.552 56.32 34.632 56.568 34.632 56.872C34.632 57.208 34.512 57.48 34.272 57.688C34.032 57.896 33.664 58 33.168 58H21.408C20.912 58 20.544 57.896 20.304 57.688C20.064 57.48 19.944 57.208 19.944 56.872C19.944 56.584 20.024 56.36 20.184 56.2C20.344 56.024 20.592 55.864 20.928 55.72L21.984 55.432C22.4 55.272 22.6 55.048 22.584 54.76C22.568 54.472 22.464 54.016 22.272 53.392L14.28 27.88L15.12 27.064L7.488 51.544C7.264 52.28 7.176 52.888 7.224 53.368C7.272 53.848 7.464 54.248 7.8 54.568C8.136 54.888 8.624 55.192 9.264 55.48L10.176 55.768C10.48 55.896 10.712 56.04 10.872 56.2C11.032 56.36 11.112 56.584 11.112 56.872ZM37.0924 37.744L35.9644 37.408C35.6444 37.296 35.4124 37.16 35.2684 37C35.1404 36.824 35.0764 36.624 35.0764 36.4C35.0764 36.08 35.1804 35.832 35.3884 35.656C35.6124 35.48 35.9004 35.392 36.2524 35.392H37.7644C38.0524 35.392 38.3084 35.336 38.5324 35.224C38.7564 35.096 39.0124 34.864 39.3004 34.528L43.0924 30.52C43.4444 30.136 43.7804 29.848 44.1004 29.656C44.4364 29.464 44.7644 29.368 45.0844 29.368C45.4204 29.368 45.6844 29.48 45.8764 29.704C46.0684 29.912 46.1644 30.224 46.1644 30.64V50.512C46.1644 51.712 46.3804 52.616 46.8124 53.224C47.2604 53.832 47.8764 54.136 48.6604 54.136C49.2044 54.136 49.6284 54.024 49.9324 53.8C50.2524 53.56 50.5084 53.28 50.7004 52.96C50.9084 52.64 51.1084 52.336 51.3004 52.048C51.5084 51.76 51.7644 51.568 52.0684 51.472C52.2924 51.44 52.4764 51.504 52.6204 51.664C52.7644 51.808 52.8364 52.08 52.8364 52.48C52.7884 53.632 52.4364 54.664 51.7804 55.576C51.1404 56.488 50.2524 57.216 49.1164 57.76C47.9964 58.288 46.7004 58.552 45.2284 58.552C42.9404 58.552 41.1644 58 39.9004 56.896C38.6364 55.776 38.0044 54.088 38.0044 51.832V39.04C38.0044 38.656 37.9324 38.376 37.7884 38.2C37.6604 38.024 37.4284 37.872 37.0924 37.744ZM43.2844 37.816L43.3324 35.392H51.4924C51.8604 35.392 52.1484 35.472 52.3564 35.632C52.5644 35.776 52.6684 35.992 52.6684 36.28C52.6684 36.712 52.4524 37.08 52.0204 37.384C51.6044 37.672 50.9244 37.816 49.9804 37.816H43.2844ZM64.6665 36.376V54.16C64.6665 54.656 64.7225 55.024 64.8345 55.264C64.9465 55.488 65.1305 55.64 65.3865 55.72L66.1785 55.96C66.4665 56.072 66.6745 56.216 66.8025 56.392C66.9305 56.552 66.9945 56.752 66.9945 56.992C66.9945 57.312 66.8905 57.56 66.6825 57.736C66.4905 57.912 66.1625 58 65.6985 58H55.4025C54.9545 58 54.6265 57.912 54.4185 57.736C54.2105 57.56 54.1065 57.312 54.1065 56.992C54.1065 56.768 54.1705 56.568 54.2985 56.392C54.4265 56.216 54.6345 56.072 54.9225 55.96L55.7385 55.72C55.9945 55.64 56.1785 55.488 56.2905 55.264C56.4025 55.04 56.4585 54.672 56.4585 54.16V40.672C56.4585 40.288 56.4025 40.016 56.2905 39.856C56.1785 39.68 55.9945 39.568 55.7385 39.52L54.7785 39.4C54.5065 39.336 54.3065 39.232 54.1785 39.088C54.0665 38.928 54.0105 38.736 54.0105 38.512C54.0105 38.24 54.0905 38.024 54.2505 37.864C54.4105 37.704 54.6905 37.544 55.0905 37.384L60.6105 35.464C61.2505 35.24 61.7465 35.08 62.0985 34.984C62.4665 34.888 62.7865 34.84 63.0585 34.84C63.6025 34.84 64.0025 34.984 64.2585 35.272C64.5305 35.56 64.6665 35.928 64.6665 36.376ZM60.1305 32.08C58.6425 32.08 57.4585 31.704 56.5785 30.952C55.6985 30.184 55.2585 29.184 55.2585 27.952C55.2585 26.72 55.6985 25.736 56.5785 25C57.4585 24.248 58.6425 23.872 60.1305 23.872C61.6025 23.872 62.7785 24.248 63.6585 25C64.5545 25.736 65.0025 26.72 65.0025 27.952C65.0025 29.184 64.5545 30.184 63.6585 30.952C62.7785 31.704 61.6025 32.08 60.1305 32.08ZM69.5786 37.744L68.4506 37.408C68.1306 37.296 67.8986 37.16 67.7546 37C67.6266 36.824 67.5626 36.624 67.5626 36.4C67.5626 36.08 67.6666 35.832 67.8746 35.656C68.0986 35.48 68.3866 35.392 68.7386 35.392H70.2506C70.5386 35.392 70.7946 35.336 71.0186 35.224C71.2426 35.096 71.4986 34.864 71.7866 34.528L75.5786 30.52C75.9306 30.136 76.2666 29.848 76.5866 29.656C76.9226 29.464 77.2506 29.368 77.5706 29.368C77.9066 29.368 78.1706 29.48 78.3626 29.704C78.5546 29.912 78.6506 30.224 78.6506 30.64V50.512C78.6506 51.712 78.8666 52.616 79.2986 53.224C79.7466 53.832 80.3626 54.136 81.1466 54.136C81.6906 54.136 82.1146 54.024 82.4186 53.8C82.7386 53.56 82.9946 53.28 83.1866 52.96C83.3946 52.64 83.5946 52.336 83.7866 52.048C83.9946 51.76 84.2506 51.568 84.5546 51.472C84.7786 51.44 84.9626 51.504 85.1066 51.664C85.2506 51.808 85.3226 52.08 85.3226 52.48C85.2746 53.632 84.9226 54.664 84.2666 55.576C83.6266 56.488 82.7386 57.216 81.6026 57.76C80.4826 58.288 79.1866 58.552 77.7146 58.552C75.4266 58.552 73.6506 58 72.3866 56.896C71.1226 55.776 70.4906 54.088 70.4906 51.832V39.04C70.4906 38.656 70.4186 38.376 70.2746 38.2C70.1466 38.024 69.9146 37.872 69.5786 37.744ZM75.7706 37.816L75.8186 35.392H83.9786C84.3466 35.392 84.6346 35.472 84.8426 35.632C85.0506 35.776 85.1546 35.992 85.1546 36.28C85.1546 36.712 84.9386 37.08 84.5066 37.384C84.0906 37.672 83.4106 37.816 82.4666 37.816H75.7706ZM87.6968 37.744L86.5688 37.408C86.2488 37.296 86.0168 37.16 85.8728 37C85.7448 36.824 85.6808 36.624 85.6808 36.4C85.6808 36.08 85.7848 35.832 85.9928 35.656C86.2168 35.48 86.5048 35.392 86.8568 35.392H88.3688C88.6568 35.392 88.9128 35.336 89.1368 35.224C89.3608 35.096 89.6168 34.864 89.9048 34.528L93.6968 30.52C94.0488 30.136 94.3848 29.848 94.7048 29.656C95.0408 29.464 95.3688 29.368 95.6888 29.368C96.0248 29.368 96.2888 29.48 96.4808 29.704C96.6728 29.912 96.7688 30.224 96.7688 30.64V50.512C96.7688 51.712 96.9848 52.616 97.4168 53.224C97.8648 53.832 98.4808 54.136 99.2648 54.136C99.8088 54.136 100.233 54.024 100.537 53.8C100.857 53.56 101.113 53.28 101.305 52.96C101.513 52.64 101.713 52.336 101.905 52.048C102.113 51.76 102.369 51.568 102.673 51.472C102.897 51.44 103.081 51.504 103.225 51.664C103.369 51.808 103.441 52.08 103.441 52.48C103.393 53.632 103.041 54.664 102.385 55.576C101.745 56.488 100.857 57.216 99.7208 57.76C98.6008 58.288 97.3048 58.552 95.8328 58.552C93.5448 58.552 91.7688 58 90.5048 56.896C89.2408 55.776 88.6088 54.088 88.6088 51.832V39.04C88.6088 38.656 88.5368 38.376 88.3928 38.2C88.2648 38.024 88.0328 37.872 87.6968 37.744ZM93.8888 37.816L93.9368 35.392H102.097C102.465 35.392 102.753 35.472 102.961 35.632C103.169 35.776 103.273 35.992 103.273 36.28C103.273 36.712 103.057 37.08 102.625 37.384C102.209 37.672 101.529 37.816 100.585 37.816H93.8888ZM121.799 54.544V53.272L121.583 53.2V40.696C121.583 40.312 121.519 40.04 121.391 39.88C121.279 39.704 121.103 39.584 120.863 39.52L119.879 39.424C119.623 39.36 119.431 39.256 119.303 39.112C119.191 38.952 119.135 38.76 119.135 38.536C119.135 38.264 119.207 38.048 119.351 37.888C119.511 37.728 119.799 37.568 120.215 37.408L125.735 35.488C126.327 35.264 126.807 35.104 127.175 35.008C127.543 34.912 127.895 34.864 128.231 34.864C128.743 34.864 129.127 35.008 129.383 35.296C129.655 35.568 129.791 35.928 129.791 36.376V54.16C129.791 54.656 129.847 55.024 129.959 55.264C130.071 55.488 130.247 55.64 130.487 55.72L131.303 55.96C131.591 56.072 131.799 56.216 131.927 56.392C132.055 56.552 132.119 56.752 132.119 56.992C132.119 57.312 132.015 57.56 131.807 57.736C131.599 57.912 131.271 58 130.823 58H124.871C124.023 58 123.295 57.672 122.687 57.016C122.095 56.344 121.799 55.52 121.799 54.544ZM106.583 51.448V40.696C106.583 40.312 106.519 40.04 106.391 39.88C106.279 39.704 106.103 39.584 105.863 39.52L104.903 39.424C104.631 39.36 104.431 39.256 104.303 39.112C104.191 38.952 104.135 38.76 104.135 38.536C104.135 38.264 104.207 38.048 104.351 37.888C104.511 37.728 104.799 37.568 105.215 37.408L110.735 35.488C111.375 35.248 111.871 35.088 112.223 35.008C112.575 34.912 112.895 34.864 113.183 34.864C113.711 34.864 114.111 35.008 114.383 35.296C114.655 35.568 114.791 35.928 114.791 36.376V50.32C114.791 51.536 115.071 52.44 115.631 53.032C116.191 53.624 116.959 53.92 117.935 53.92C118.543 53.92 119.175 53.792 119.831 53.536C120.503 53.264 121.159 52.856 121.799 52.312L122.687 51.52L123.767 52.648L122.903 53.416C120.855 55.32 119.055 56.664 117.503 57.448C115.951 58.216 114.519 58.6 113.207 58.6C111.239 58.6 109.639 57.96 108.407 56.68C107.191 55.384 106.583 53.64 106.583 51.448ZM150.809 54.184L150.593 54.112V27.88C150.593 27.496 150.529 27.224 150.401 27.064C150.289 26.888 150.113 26.776 149.873 26.728L148.889 26.608C148.633 26.544 148.441 26.44 148.313 26.296C148.201 26.136 148.145 25.944 148.145 25.72C148.145 25.448 148.217 25.232 148.361 25.072C148.521 24.912 148.809 24.76 149.225 24.616L154.745 22.696C155.337 22.456 155.817 22.288 156.185 22.192C156.553 22.096 156.905 22.048 157.241 22.048C157.753 22.048 158.137 22.192 158.393 22.48C158.665 22.768 158.801 23.136 158.801 23.584V54.16C158.801 54.656 158.857 55.024 158.969 55.264C159.081 55.488 159.257 55.64 159.497 55.72L160.313 55.96C160.601 56.072 160.809 56.216 160.937 56.392C161.065 56.552 161.129 56.752 161.129 56.992C161.129 57.312 161.025 57.56 160.817 57.736C160.609 57.912 160.281 58 159.833 58H153.713C152.913 58 152.225 57.728 151.649 57.184C151.089 56.64 150.809 55.96 150.809 55.144V54.184ZM133.865 47.392C133.865 44.848 134.369 42.632 135.377 40.744C136.401 38.856 137.785 37.392 139.529 36.352C141.273 35.312 143.241 34.792 145.433 34.792C147.273 34.792 148.865 35.192 150.209 35.992C151.569 36.776 152.705 37.944 153.617 39.496L151.817 40.816C151.129 39.712 150.393 38.904 149.609 38.392C148.841 37.864 147.993 37.6 147.065 37.6C146.153 37.6 145.337 37.904 144.617 38.512C143.913 39.104 143.353 40.056 142.937 41.368C142.537 42.68 142.337 44.408 142.337 46.552C142.337 48.52 142.529 50.12 142.913 51.352C143.313 52.584 143.857 53.496 144.545 54.088C145.233 54.664 146.017 54.952 146.897 54.952C147.857 54.952 148.753 54.648 149.585 54.04C150.433 53.432 151.217 52.48 151.937 51.184L153.113 52.456C151.865 54.392 150.457 55.904 148.889 56.992C147.321 58.064 145.561 58.6 143.609 58.6C141.721 58.6 140.041 58.128 138.569 57.184C137.113 56.24 135.961 54.928 135.113 53.248C134.281 51.568 133.865 49.616 133.865 47.392ZM185.329 44.056C185.329 44.872 185.097 45.504 184.633 45.952C184.185 46.4 183.529 46.624 182.665 46.624H167.977V44.8H176.065C176.801 44.8 177.169 44.456 177.169 43.768C177.169 41.512 176.849 39.856 176.209 38.8C175.585 37.728 174.777 37.192 173.785 37.192C173.033 37.192 172.361 37.448 171.769 37.96C171.193 38.472 170.729 39.248 170.377 40.288C170.041 41.328 169.873 42.624 169.873 44.176C169.873 47.248 170.561 49.52 171.937 50.992C173.329 52.464 175.177 53.2 177.481 53.2C178.825 53.2 179.993 52.952 180.985 52.456C181.977 51.944 182.769 51.184 183.361 50.176C183.649 49.872 183.881 49.664 184.057 49.552C184.233 49.44 184.401 49.384 184.561 49.384C184.801 49.384 184.977 49.496 185.089 49.72C185.201 49.944 185.257 50.224 185.257 50.56C185.225 52.016 184.745 53.36 183.817 54.592C182.905 55.808 181.649 56.784 180.049 57.52C178.465 58.24 176.633 58.6 174.553 58.6C172.233 58.6 170.161 58.128 168.337 57.184C166.529 56.24 165.105 54.912 164.065 53.2C163.025 51.488 162.505 49.496 162.505 47.224C162.505 44.744 162.993 42.576 163.969 40.72C164.961 38.848 166.377 37.392 168.217 36.352C170.073 35.312 172.289 34.792 174.865 34.792C177.105 34.792 179.001 35.192 180.553 35.992C182.121 36.792 183.305 37.888 184.105 39.28C184.921 40.672 185.329 42.264 185.329 44.056ZM202.393 44.248H216.049L216.121 46.768H202.273L202.393 44.248ZM205.441 56.872C205.441 57.208 205.329 57.48 205.105 57.688C204.881 57.896 204.513 58 204.001 58H196.225C195.745 58 195.385 57.896 195.145 57.688C194.905 57.48 194.785 57.208 194.785 56.872C194.785 56.616 194.849 56.408 194.977 56.248C195.121 56.072 195.345 55.896 195.649 55.72L196.297 55.432C196.825 55.176 197.257 54.808 197.593 54.328C197.945 53.848 198.297 53.048 198.649 51.928L205.609 29.56C205.865 28.744 205.937 28.144 205.825 27.76C205.713 27.376 205.385 27.064 204.841 26.824C204.441 26.648 204.153 26.456 203.977 26.248C203.817 26.04 203.737 25.8 203.737 25.528C203.737 25.16 203.857 24.88 204.097 24.688C204.337 24.496 204.705 24.4 205.201 24.4H218.281C218.793 24.4 219.161 24.496 219.385 24.688C219.625 24.88 219.745 25.16 219.745 25.528C219.745 25.832 219.657 26.088 219.481 26.296C219.321 26.488 219.065 26.648 218.713 26.776C218.313 26.936 218.073 27.144 217.993 27.4C217.929 27.656 217.985 28.08 218.161 28.672L225.985 52.888C226.241 53.704 226.497 54.312 226.753 54.712C227.025 55.096 227.393 55.376 227.857 55.552C228.289 55.744 228.577 55.936 228.721 56.128C228.881 56.32 228.961 56.568 228.961 56.872C228.961 57.208 228.841 57.48 228.601 57.688C228.361 57.896 227.993 58 227.497 58H215.737C215.241 58 214.873 57.896 214.633 57.688C214.393 57.48 214.273 57.208 214.273 56.872C214.273 56.584 214.353 56.36 214.513 56.2C214.673 56.024 214.921 55.864 215.257 55.72L216.313 55.432C216.729 55.272 216.929 55.048 216.913 54.76C216.897 54.472 216.793 54.016 216.601 53.392L208.609 27.88L209.449 27.064L201.817 51.544C201.593 52.28 201.505 52.888 201.553 53.368C201.601 53.848 201.793 54.248 202.129 54.568C202.465 54.888 202.953 55.192 203.593 55.48L204.505 55.768C204.809 55.896 205.041 56.04 205.201 56.2C205.361 56.36 205.441 56.584 205.441 56.872ZM240.877 36.376V54.16C240.877 54.656 240.933 55.016 241.045 55.24C241.157 55.464 241.333 55.624 241.573 55.72L242.341 55.984C242.789 56.192 243.013 56.512 243.013 56.944C243.013 57.648 242.581 58 241.717 58H231.589C231.157 58 230.837 57.912 230.629 57.736C230.421 57.56 230.317 57.312 230.317 56.992C230.317 56.768 230.381 56.568 230.509 56.392C230.637 56.216 230.845 56.072 231.133 55.96L231.949 55.72C232.205 55.64 232.389 55.488 232.501 55.264C232.613 55.04 232.669 54.672 232.669 54.16V40.672C232.669 40.288 232.605 40.016 232.477 39.856C232.365 39.68 232.189 39.568 231.949 39.52L230.989 39.4C230.717 39.336 230.517 39.232 230.389 39.088C230.277 38.928 230.221 38.736 230.221 38.512C230.221 38.24 230.293 38.024 230.437 37.864C230.597 37.704 230.885 37.544 231.301 37.384L236.821 35.464C237.413 35.24 237.893 35.08 238.261 34.984C238.629 34.888 238.981 34.84 239.317 34.84C239.829 34.84 240.213 34.984 240.469 35.272C240.741 35.56 240.877 35.928 240.877 36.376ZM240.109 41.872L239.029 40.744L239.893 39.976C241.925 38.12 243.669 36.792 245.125 35.992C246.597 35.192 247.965 34.792 249.229 34.792C251.133 34.792 252.621 35.432 253.693 36.712C254.765 37.976 255.405 39.688 255.613 41.848L256.933 54.136C256.981 54.648 257.053 55.024 257.149 55.264C257.245 55.488 257.421 55.648 257.677 55.744L258.445 55.96C258.733 56.072 258.941 56.216 259.069 56.392C259.197 56.568 259.261 56.768 259.261 56.992C259.261 57.312 259.157 57.56 258.949 57.736C258.757 57.912 258.429 58 257.965 58H247.741C246.861 58 246.421 57.648 246.421 56.944C246.421 56.512 246.645 56.192 247.093 55.984L247.885 55.72C248.157 55.624 248.357 55.464 248.485 55.24C248.629 55 248.669 54.632 248.605 54.136L247.453 42.952C247.341 41.784 247.061 40.912 246.613 40.336C246.165 39.744 245.485 39.448 244.573 39.448C244.013 39.448 243.429 39.592 242.821 39.88C242.213 40.152 241.605 40.552 240.997 41.08L240.109 41.872ZM274.127 55.024V54.544L273.575 54.568V39.328C273.575 38.464 273.351 37.792 272.903 37.312C272.471 36.816 271.871 36.568 271.103 36.568C270.399 36.568 269.839 36.728 269.423 37.048C269.023 37.368 268.823 37.776 268.823 38.272V40.624C268.823 41.728 268.439 42.6 267.671 43.24C266.903 43.88 265.839 44.2 264.479 44.2C263.343 44.2 262.479 43.936 261.887 43.408C261.311 42.88 261.023 42.144 261.023 41.2C261.023 40.208 261.447 39.224 262.295 38.248C263.159 37.256 264.439 36.44 266.135 35.8C267.847 35.144 269.967 34.816 272.495 34.816C275.599 34.816 277.911 35.416 279.431 36.616C280.951 37.816 281.711 39.464 281.711 41.56V53.584C281.711 53.968 281.791 54.272 281.951 54.496C282.127 54.704 282.375 54.808 282.695 54.808C282.999 54.808 283.239 54.728 283.415 54.568C283.607 54.408 283.759 54.224 283.871 54.016C283.951 53.904 284.039 53.816 284.135 53.752C284.231 53.688 284.343 53.656 284.471 53.656C284.663 53.656 284.799 53.728 284.879 53.872C284.975 54.016 285.023 54.2 285.023 54.424C285.023 54.984 284.807 55.592 284.375 56.248C283.959 56.888 283.327 57.44 282.479 57.904C281.631 58.368 280.559 58.6 279.263 58.6C277.679 58.6 276.423 58.272 275.495 57.616C274.583 56.944 274.127 56.08 274.127 55.024ZM260.015 53.008C260.015 50.96 260.919 49.328 262.727 48.112C264.535 46.896 267.143 46.288 270.551 46.288C271.527 46.288 272.375 46.368 273.095 46.528C273.815 46.688 274.431 46.896 274.943 47.152L274.367 48.64C273.919 48.416 273.471 48.248 273.023 48.136C272.591 48.024 272.119 47.968 271.607 47.968C270.567 47.968 269.751 48.288 269.159 48.928C268.583 49.552 268.295 50.456 268.295 51.64C268.295 52.808 268.559 53.696 269.087 54.304C269.631 54.912 270.335 55.216 271.199 55.216C271.839 55.216 272.447 55.064 273.023 54.76C273.615 54.456 274.095 54.056 274.463 53.56L274.943 54.904C274.159 56.088 273.055 57 271.631 57.64C270.207 58.28 268.687 58.6 267.071 58.6C264.975 58.6 263.271 58.08 261.959 57.04C260.663 55.984 260.015 54.64 260.015 53.008ZM296.521 23.584V54.16C296.521 54.656 296.577 55.024 296.689 55.264C296.801 55.488 296.985 55.64 297.241 55.72L298.033 55.96C298.321 56.072 298.529 56.216 298.657 56.392C298.785 56.552 298.849 56.752 298.849 56.992C298.849 57.312 298.745 57.56 298.537 57.736C298.329 57.912 298.001 58 297.553 58H287.257C286.809 58 286.481 57.912 286.273 57.736C286.065 57.56 285.961 57.312 285.961 56.992C285.961 56.768 286.025 56.568 286.153 56.392C286.281 56.216 286.489 56.072 286.777 55.96L287.593 55.72C287.849 55.64 288.033 55.488 288.145 55.264C288.257 55.04 288.313 54.672 288.313 54.16V27.88C288.313 27.496 288.249 27.224 288.121 27.064C288.009 26.888 287.833 26.776 287.593 26.728L286.633 26.608C286.361 26.544 286.161 26.44 286.033 26.296C285.921 26.136 285.865 25.944 285.865 25.72C285.865 25.448 285.937 25.232 286.081 25.072C286.241 24.912 286.529 24.76 286.945 24.616L292.465 22.696C293.089 22.456 293.577 22.288 293.929 22.192C294.297 22.096 294.625 22.048 294.913 22.048C295.441 22.048 295.841 22.192 296.113 22.48C296.385 22.768 296.521 23.136 296.521 23.584ZM316.383 53.416L312.015 61.456L301.983 39.664C301.663 38.976 301.343 38.48 301.023 38.176C300.703 37.856 300.279 37.608 299.751 37.432C299.463 37.32 299.255 37.184 299.127 37.024C299.015 36.864 298.959 36.656 298.959 36.4C298.959 36.08 299.071 35.832 299.295 35.656C299.519 35.48 299.823 35.392 300.207 35.392H312.087C312.471 35.392 312.775 35.48 312.999 35.656C313.223 35.832 313.335 36.08 313.335 36.4C313.335 36.656 313.263 36.864 313.119 37.024C312.975 37.184 312.735 37.304 312.399 37.384L311.511 37.576C310.887 37.736 310.519 38.016 310.407 38.416C310.295 38.8 310.431 39.456 310.815 40.384L316.383 53.416ZM311.583 61.12L312.807 58.096L313.743 56.272L319.839 40.792C320.223 39.832 320.343 39.128 320.199 38.68C320.071 38.216 319.671 37.896 318.999 37.72L318.039 37.456C317.719 37.36 317.479 37.224 317.319 37.048C317.175 36.872 317.103 36.656 317.103 36.4C317.103 36.08 317.215 35.832 317.439 35.656C317.663 35.48 317.967 35.392 318.351 35.392H324.951C325.335 35.392 325.639 35.488 325.863 35.68C326.087 35.856 326.199 36.096 326.199 36.4C326.199 36.624 326.135 36.816 326.007 36.976C325.879 37.136 325.655 37.288 325.335 37.432C324.631 37.688 324.071 38.024 323.655 38.44C323.255 38.84 322.871 39.52 322.503 40.48L314.463 60.52C313.519 62.824 312.663 64.624 311.895 65.92C311.143 67.216 310.311 68.12 309.399 68.632C308.503 69.144 307.367 69.4 305.991 69.4C304.039 69.4 302.487 68.864 301.335 67.792C300.183 66.736 299.607 65.424 299.607 63.856C299.607 62.704 299.895 61.8 300.471 61.144C301.047 60.504 301.807 60.184 302.751 60.184C303.663 60.184 304.367 60.448 304.863 60.976C305.359 61.52 305.783 62.248 306.135 63.16L306.519 64.216C306.695 64.76 306.927 65.192 307.215 65.512C307.503 65.848 307.823 66.016 308.175 66.016C308.511 66.016 308.831 65.88 309.135 65.608C309.439 65.352 309.783 64.864 310.167 64.144C310.551 63.44 311.023 62.432 311.583 61.12ZM337.186 56.392C338.194 56.392 338.962 56.152 339.49 55.672C340.018 55.192 340.282 54.592 340.282 53.872C340.282 53.408 340.178 52.984 339.97 52.6C339.778 52.216 339.386 51.864 338.794 51.544C338.218 51.208 337.354 50.912 336.202 50.656C333.626 50.112 331.642 49.448 330.25 48.664C328.858 47.864 327.898 46.936 327.37 45.88C326.858 44.824 326.602 43.648 326.602 42.352C326.602 40 327.418 38.152 329.05 36.808C330.698 35.464 333.074 34.792 336.178 34.792C337.282 34.792 338.178 34.888 338.866 35.08C339.554 35.256 340.106 35.44 340.522 35.632C340.954 35.808 341.314 35.896 341.602 35.896C341.938 35.896 342.234 35.808 342.49 35.632C342.746 35.44 343.002 35.256 343.258 35.08C343.514 34.888 343.81 34.792 344.146 34.792C344.402 34.792 344.626 34.872 344.818 35.032C345.026 35.192 345.186 35.488 345.298 35.92L346.666 41.008C346.842 41.6 346.89 42.072 346.81 42.424C346.746 42.776 346.538 43.024 346.186 43.168C345.818 43.296 345.498 43.296 345.226 43.168C344.97 43.04 344.714 42.792 344.458 42.424C343.674 41.112 342.858 40.056 342.01 39.256C341.178 38.456 340.314 37.88 339.418 37.528C338.538 37.16 337.61 36.976 336.634 36.976C335.45 36.976 334.554 37.224 333.946 37.72C333.354 38.2 333.058 38.848 333.058 39.664C333.058 40.192 333.186 40.656 333.442 41.056C333.714 41.456 334.218 41.832 334.954 42.184C335.69 42.52 336.762 42.84 338.17 43.144C340.298 43.592 341.978 44.192 343.21 44.944C344.458 45.68 345.354 46.576 345.898 47.632C346.442 48.672 346.714 49.88 346.714 51.256C346.714 52.728 346.33 54.016 345.562 55.12C344.794 56.224 343.738 57.08 342.394 57.688C341.066 58.296 339.538 58.6 337.81 58.6C336.738 58.6 335.874 58.496 335.218 58.288C334.578 58.08 334.05 57.872 333.634 57.664C333.218 57.456 332.842 57.352 332.506 57.352C332.17 57.352 331.85 57.456 331.546 57.664C331.258 57.856 330.97 58.056 330.682 58.264C330.394 58.472 330.098 58.576 329.794 58.576C329.538 58.576 329.314 58.48 329.122 58.288C328.946 58.096 328.818 57.776 328.738 57.328L327.874 52.624C327.762 52 327.746 51.536 327.826 51.232C327.922 50.928 328.13 50.704 328.45 50.56C328.802 50.416 329.106 50.432 329.362 50.608C329.634 50.768 329.914 51.056 330.202 51.472C331.322 53.248 332.474 54.512 333.658 55.264C334.842 56.016 336.018 56.392 337.186 56.392ZM359.733 36.376V54.16C359.733 54.656 359.789 55.024 359.901 55.264C360.013 55.488 360.197 55.64 360.453 55.72L361.245 55.96C361.533 56.072 361.741 56.216 361.869 56.392C361.997 56.552 362.061 56.752 362.061 56.992C362.061 57.312 361.957 57.56 361.749 57.736C361.557 57.912 361.229 58 360.765 58H350.469C350.021 58 349.693 57.912 349.485 57.736C349.277 57.56 349.173 57.312 349.173 56.992C349.173 56.768 349.237 56.568 349.365 56.392C349.493 56.216 349.701 56.072 349.989 55.96L350.805 55.72C351.061 55.64 351.245 55.488 351.357 55.264C351.469 55.04 351.525 54.672 351.525 54.16V40.672C351.525 40.288 351.469 40.016 351.357 39.856C351.245 39.68 351.061 39.568 350.805 39.52L349.845 39.4C349.573 39.336 349.373 39.232 349.245 39.088C349.133 38.928 349.077 38.736 349.077 38.512C349.077 38.24 349.157 38.024 349.317 37.864C349.477 37.704 349.757 37.544 350.157 37.384L355.677 35.464C356.317 35.24 356.813 35.08 357.165 34.984C357.533 34.888 357.853 34.84 358.125 34.84C358.669 34.84 359.069 34.984 359.325 35.272C359.597 35.56 359.733 35.928 359.733 36.376ZM355.197 32.08C353.709 32.08 352.525 31.704 351.645 30.952C350.765 30.184 350.325 29.184 350.325 27.952C350.325 26.72 350.765 25.736 351.645 25C352.525 24.248 353.709 23.872 355.197 23.872C356.669 23.872 357.845 24.248 358.725 25C359.621 25.736 360.069 26.72 360.069 27.952C360.069 29.184 359.621 30.184 358.725 30.952C357.845 31.704 356.669 32.08 355.197 32.08ZM374.126 56.392C375.134 56.392 375.902 56.152 376.43 55.672C376.958 55.192 377.222 54.592 377.222 53.872C377.222 53.408 377.118 52.984 376.91 52.6C376.718 52.216 376.326 51.864 375.734 51.544C375.158 51.208 374.294 50.912 373.142 50.656C370.566 50.112 368.582 49.448 367.19 48.664C365.798 47.864 364.838 46.936 364.31 45.88C363.798 44.824 363.542 43.648 363.542 42.352C363.542 40 364.358 38.152 365.99 36.808C367.638 35.464 370.014 34.792 373.118 34.792C374.222 34.792 375.118 34.888 375.806 35.08C376.494 35.256 377.046 35.44 377.462 35.632C377.894 35.808 378.254 35.896 378.542 35.896C378.878 35.896 379.174 35.808 379.43 35.632C379.686 35.44 379.942 35.256 380.198 35.08C380.454 34.888 380.75 34.792 381.086 34.792C381.342 34.792 381.566 34.872 381.758 35.032C381.966 35.192 382.126 35.488 382.238 35.92L383.606 41.008C383.782 41.6 383.83 42.072 383.75 42.424C383.686 42.776 383.478 43.024 383.126 43.168C382.758 43.296 382.438 43.296 382.166 43.168C381.91 43.04 381.654 42.792 381.398 42.424C380.614 41.112 379.798 40.056 378.95 39.256C378.118 38.456 377.254 37.88 376.358 37.528C375.478 37.16 374.55 36.976 373.574 36.976C372.39 36.976 371.494 37.224 370.886 37.72C370.294 38.2 369.998 38.848 369.998 39.664C369.998 40.192 370.126 40.656 370.382 41.056C370.654 41.456 371.158 41.832 371.894 42.184C372.63 42.52 373.702 42.84 375.11 43.144C377.238 43.592 378.918 44.192 380.15 44.944C381.398 45.68 382.294 46.576 382.838 47.632C383.382 48.672 383.654 49.88 383.654 51.256C383.654 52.728 383.27 54.016 382.502 55.12C381.734 56.224 380.678 57.08 379.334 57.688C378.006 58.296 376.478 58.6 374.75 58.6C373.678 58.6 372.814 58.496 372.158 58.288C371.518 58.08 370.99 57.872 370.574 57.664C370.158 57.456 369.782 57.352 369.446 57.352C369.11 57.352 368.79 57.456 368.486 57.664C368.198 57.856 367.91 58.056 367.622 58.264C367.334 58.472 367.038 58.576 366.734 58.576C366.478 58.576 366.254 58.48 366.062 58.288C365.886 58.096 365.758 57.776 365.678 57.328L364.814 52.624C364.702 52 364.686 51.536 364.766 51.232C364.862 50.928 365.07 50.704 365.39 50.56C365.742 50.416 366.046 50.432 366.302 50.608C366.574 50.768 366.854 51.056 367.142 51.472C368.262 53.248 369.414 54.512 370.598 55.264C371.782 56.016 372.958 56.392 374.126 56.392Z" fill="#101828"/>
</svg>
