<svg width="auto" height="auto" viewBox="0 0 1372 222" fill="none" xmlns="http://www.w3.org/2000/svg">
<rect x="0.5" y="0.5" width="1371" height="221" rx="23.5" fill="#FDF4EA" stroke="#9C1717"/>
<path d="M130.108 65.1489V62.541C130.108 61.791 130.249 61.0111 130.53 60.2015C130.82 59.3833 131.212 58.612 131.706 57.8876C132.209 57.1546 132.771 56.5367 133.393 56.0339L135.541 57.4273C135.038 58.1859 134.616 58.9785 134.276 59.8052C133.943 60.6234 133.781 61.5268 133.79 62.5154V65.1489H130.108ZM136.589 65.1489V62.541C136.589 61.791 136.73 61.0111 137.011 60.2015C137.301 59.3833 137.693 58.612 138.188 57.8876C138.69 57.1546 139.253 56.5367 139.875 56.0339L142.023 57.4273C141.52 58.1859 141.098 58.9785 140.757 59.8052C140.425 60.6234 140.263 61.5268 140.271 62.5154V65.1489H136.589ZM145.363 83.1489H140.3L149.517 56.9671H155.373L164.603 83.1489H159.54L152.547 62.3364H152.343L145.363 83.1489ZM145.529 72.8833H159.336V76.693H145.529V72.8833ZM192.296 68.7029L188.077 69.1631C187.958 68.737 187.749 68.3364 187.451 67.9614C187.161 67.5864 186.769 67.2839 186.275 67.0538C185.781 66.8236 185.175 66.7086 184.46 66.7086C183.496 66.7086 182.687 66.9174 182.031 67.335C181.383 67.7526 181.063 68.2938 181.072 68.9586C181.063 69.5296 181.272 69.9941 181.698 70.3521C182.133 70.71 182.849 71.004 183.846 71.2342L187.195 71.9501C189.053 72.3506 190.434 72.9856 191.337 73.8549C192.249 74.7242 192.71 75.862 192.718 77.2682C192.71 78.504 192.347 79.5949 191.631 80.541C190.924 81.4785 189.94 82.2114 188.678 82.7398C187.417 83.2682 185.968 83.5324 184.332 83.5324C181.928 83.5324 179.994 83.0296 178.528 82.0239C177.062 81.0097 176.188 79.5992 175.907 77.7924L180.42 77.3577C180.624 78.2441 181.059 78.9131 181.724 79.3648C182.388 79.8165 183.254 80.0424 184.319 80.0424C185.418 80.0424 186.3 79.8165 186.965 79.3648C187.638 78.9131 187.975 78.3549 187.975 77.6901C187.975 77.1276 187.758 76.6631 187.323 76.2967C186.897 75.9302 186.232 75.6489 185.329 75.4529L181.979 74.7498C180.096 74.3577 178.702 73.6972 177.799 72.7682C176.896 71.8307 176.448 70.6461 176.457 69.2143C176.448 68.004 176.776 66.9557 177.441 66.0694C178.114 65.1745 179.048 64.4842 180.241 63.9984C181.442 63.504 182.827 63.2569 184.396 63.2569C186.697 63.2569 188.508 63.7469 189.829 64.7271C191.158 65.7072 191.981 67.0324 192.296 68.7029ZM206.339 63.5126V67.0921H195.051V63.5126H206.339ZM197.838 58.808H202.466V77.2427C202.466 77.8648 202.56 78.3421 202.747 78.6745C202.943 78.9984 203.199 79.2199 203.514 79.3393C203.83 79.4586 204.179 79.5182 204.562 79.5182C204.852 79.5182 205.116 79.4969 205.355 79.4543C205.602 79.4117 205.79 79.3734 205.918 79.3393L206.697 82.9572C206.45 83.0424 206.097 83.1361 205.636 83.2384C205.185 83.3407 204.631 83.4003 203.974 83.4174C202.815 83.4515 201.771 83.2768 200.842 82.8932C199.913 82.5012 199.176 81.8961 198.631 81.0779C198.094 80.2597 197.83 79.237 197.838 78.0097V58.808ZM222.725 74.8904V63.5126H227.353V83.1489H222.866V79.6589H222.662C222.218 80.7583 221.49 81.6574 220.475 82.3563C219.47 83.0552 218.23 83.4046 216.755 83.4046C215.468 83.4046 214.331 83.1191 213.342 82.5481C212.362 81.9685 211.595 81.129 211.041 80.0296C210.487 78.9217 210.21 77.5836 210.21 76.0154V63.5126H214.838V75.2995C214.838 76.5438 215.179 77.5324 215.86 78.2654C216.542 78.9984 217.437 79.3648 218.545 79.3648C219.227 79.3648 219.887 79.1986 220.527 78.8663C221.166 78.5339 221.69 78.0396 222.099 77.3833C222.517 76.7185 222.725 75.8876 222.725 74.8904ZM239.399 83.4941C237.857 83.4941 236.476 83.0978 235.257 82.3052C234.038 81.5126 233.075 80.362 232.368 78.8535C231.661 77.3449 231.307 75.5126 231.307 73.3563C231.307 71.1745 231.665 69.3336 232.381 67.8336C233.105 66.3251 234.081 65.1873 235.308 64.4202C236.536 63.6447 237.903 63.2569 239.412 63.2569C240.563 63.2569 241.509 63.4529 242.25 63.8449C242.991 64.2285 243.58 64.693 244.014 65.2384C244.449 65.7753 244.786 66.2824 245.024 66.7597H245.216V56.9671H249.857V83.1489H245.305V80.0552H245.024C244.786 80.5324 244.44 81.0396 243.989 81.5765C243.537 82.1049 242.94 82.5566 242.199 82.9316C241.457 83.3066 240.524 83.4941 239.399 83.4941ZM240.69 79.6972C241.67 79.6972 242.506 79.433 243.196 78.9046C243.886 78.3677 244.411 77.6219 244.768 76.6674C245.126 75.7128 245.305 74.6006 245.305 73.3307C245.305 72.0609 245.126 70.9572 244.768 70.0197C244.419 69.0822 243.899 68.3535 243.209 67.8336C242.527 67.3137 241.688 67.0538 240.69 67.0538C239.659 67.0538 238.798 67.3222 238.108 67.8592C237.418 68.3961 236.898 69.1376 236.548 70.0836C236.199 71.0296 236.024 72.112 236.024 73.3307C236.024 74.558 236.199 75.6532 236.548 76.6163C236.906 77.5708 237.43 78.3251 238.121 78.879C238.82 79.4245 239.676 79.6972 240.69 79.6972ZM257.664 90.5126C257.034 90.5126 256.45 90.4614 255.913 90.3592C255.385 90.2654 254.963 90.1546 254.647 90.0268L255.721 86.4217C256.395 86.6177 256.995 86.7114 257.524 86.7029C258.052 86.6944 258.517 86.5282 258.917 86.2043C259.326 85.889 259.672 85.3606 259.953 84.6191L260.349 83.558L253.228 63.5126H258.137L262.663 78.3421H262.868L267.406 63.5126H272.328L264.466 85.5268C264.099 86.5665 263.613 87.4572 263.008 88.1986C262.403 88.9486 261.662 89.5197 260.784 89.9117C259.914 90.3123 258.875 90.5126 257.664 90.5126ZM299.98 68.7029L295.761 69.1631C295.642 68.737 295.433 68.3364 295.135 67.9614C294.845 67.5864 294.453 67.2839 293.958 67.0538C293.464 66.8236 292.859 66.7086 292.143 66.7086C291.18 66.7086 290.37 66.9174 289.714 67.335C289.066 67.7526 288.747 68.2938 288.755 68.9586C288.747 69.5296 288.956 69.9941 289.382 70.3521C289.816 70.71 290.532 71.004 291.529 71.2342L294.879 71.9501C296.737 72.3506 298.118 72.9856 299.021 73.8549C299.933 74.7242 300.393 75.862 300.402 77.2682C300.393 78.504 300.031 79.5949 299.315 80.541C298.608 81.4785 297.623 82.2114 296.362 82.7398C295.1 83.2682 293.652 83.5324 292.015 83.5324C289.612 83.5324 287.677 83.0296 286.211 82.0239C284.745 81.0097 283.872 79.5992 283.591 77.7924L288.103 77.3577C288.308 78.2441 288.743 78.9131 289.407 79.3648C290.072 79.8165 290.937 80.0424 292.002 80.0424C293.102 80.0424 293.984 79.8165 294.649 79.3648C295.322 78.9131 295.659 78.3549 295.659 77.6901C295.659 77.1276 295.441 76.6631 295.007 76.2967C294.581 75.9302 293.916 75.6489 293.012 75.4529L289.663 74.7498C287.779 74.3577 286.386 73.6972 285.483 72.7682C284.579 71.8307 284.132 70.6461 284.14 69.2143C284.132 68.004 284.46 66.9557 285.125 66.0694C285.798 65.1745 286.731 64.4842 287.924 63.9984C289.126 63.504 290.511 63.2569 292.079 63.2569C294.38 63.2569 296.191 63.7469 297.512 64.7271C298.842 65.7072 299.664 67.0324 299.98 68.7029ZM308.846 71.6432V83.1489H304.218V56.9671H308.743V66.8492H308.973C309.434 65.7413 310.145 64.8677 311.108 64.2285C312.08 63.5807 313.316 63.2569 314.816 63.2569C316.179 63.2569 317.368 63.5424 318.382 64.1134C319.397 64.6844 320.181 65.5197 320.735 66.6191C321.297 67.7185 321.578 69.0609 321.578 70.6461V83.1489H316.951V71.362C316.951 70.041 316.61 69.014 315.928 68.281C315.255 67.5396 314.309 67.1688 313.09 67.1688C312.272 67.1688 311.539 67.3478 310.891 67.7057C310.252 68.0552 309.749 68.5623 309.382 69.2271C309.025 69.8918 308.846 70.6972 308.846 71.6432ZM334.861 83.5324C332.944 83.5324 331.282 83.1106 329.875 82.2668C328.469 81.4231 327.378 80.2427 326.603 78.7256C325.836 77.2086 325.452 75.4359 325.452 73.4074C325.452 71.379 325.836 69.6021 326.603 68.0765C327.378 66.5509 328.469 65.3663 329.875 64.5225C331.282 63.6788 332.944 63.2569 334.861 63.2569C336.779 63.2569 338.441 63.6788 339.847 64.5225C341.253 65.3663 342.34 66.5509 343.107 68.0765C343.882 69.6021 344.27 71.379 344.27 73.4074C344.27 75.4359 343.882 77.2086 343.107 78.7256C342.34 80.2427 341.253 81.4231 339.847 82.2668C338.441 83.1106 336.779 83.5324 334.861 83.5324ZM334.887 79.8251C335.926 79.8251 336.796 79.5396 337.495 78.9685C338.194 78.389 338.713 77.6134 339.054 76.6418C339.404 75.6702 339.578 74.5878 339.578 73.3947C339.578 72.193 339.404 71.1063 339.054 70.1347C338.713 69.1546 338.194 68.3748 337.495 67.7952C336.796 67.2157 335.926 66.9259 334.887 66.9259C333.821 66.9259 332.935 67.2157 332.228 67.7952C331.529 68.3748 331.005 69.1546 330.655 70.1347C330.314 71.1063 330.144 72.193 330.144 73.3947C330.144 74.5878 330.314 75.6702 330.655 76.6418C331.005 77.6134 331.529 78.389 332.228 78.9685C332.935 79.5396 333.821 79.8251 334.887 79.8251ZM351.688 83.1489L346.14 63.5126H350.857L354.309 77.3194H354.488L358.016 63.5126H362.683L366.211 77.2427H366.403L369.803 63.5126H374.533L368.972 83.1489H364.153L360.471 69.879H360.202L356.521 83.1489H351.688ZM385.895 83.5324C383.926 83.5324 382.226 83.1234 380.794 82.3052C379.371 81.4785 378.276 80.3109 377.509 78.8023C376.742 77.2853 376.358 75.4998 376.358 73.4458C376.358 71.4259 376.742 69.6532 377.509 68.1276C378.284 66.5935 379.367 65.4003 380.756 64.5481C382.145 63.6873 383.777 63.2569 385.652 63.2569C386.863 63.2569 388.005 63.4529 389.078 63.8449C390.161 64.2285 391.115 64.8251 391.942 65.6347C392.777 66.4444 393.434 67.4756 393.911 68.7285C394.388 69.9728 394.627 71.4557 394.627 73.1773V74.5964H378.532V71.4771H390.191C390.182 70.5907 389.99 69.8023 389.615 69.112C389.24 68.4131 388.716 67.8634 388.043 67.4628C387.378 67.0623 386.603 66.862 385.716 66.862C384.77 66.862 383.939 67.0921 383.223 67.5523C382.507 68.004 381.949 68.6006 381.549 69.3421C381.157 70.0751 380.956 70.8805 380.948 71.7583V74.4813C380.948 75.6234 381.157 76.6035 381.574 77.4217C381.992 78.2313 382.576 78.8535 383.326 79.2881C384.076 79.7143 384.953 79.9273 385.959 79.9273C386.632 79.9273 387.242 79.8336 387.787 79.6461C388.333 79.4501 388.806 79.1646 389.206 78.7896C389.607 78.4146 389.909 77.9501 390.114 77.3961L394.435 77.8819C394.162 79.0239 393.642 80.0211 392.875 80.8734C392.117 81.7171 391.145 82.3734 389.961 82.8421C388.776 83.3023 387.421 83.5324 385.895 83.5324ZM405.829 83.4941C404.286 83.4941 402.906 83.0978 401.687 82.3052C400.468 81.5126 399.505 80.362 398.798 78.8535C398.09 77.3449 397.737 75.5126 397.737 73.3563C397.737 71.1745 398.094 69.3336 398.81 67.8336C399.535 66.3251 400.511 65.1873 401.738 64.4202C402.965 63.6447 404.333 63.2569 405.842 63.2569C406.992 63.2569 407.938 63.4529 408.68 63.8449C409.421 64.2285 410.009 64.693 410.444 65.2384C410.879 65.7753 411.215 66.2824 411.454 66.7597H411.646V56.9671H416.286V83.1489H411.735V80.0552H411.454C411.215 80.5324 410.87 81.0396 410.418 81.5765C409.967 82.1049 409.37 82.5566 408.629 82.9316C407.887 83.3066 406.954 83.4941 405.829 83.4941ZM407.12 79.6972C408.1 79.6972 408.935 79.433 409.626 78.9046C410.316 78.3677 410.84 77.6219 411.198 76.6674C411.556 75.7128 411.735 74.6006 411.735 73.3307C411.735 72.0609 411.556 70.9572 411.198 70.0197C410.849 69.0822 410.329 68.3535 409.638 67.8336C408.957 67.3137 408.117 67.0538 407.12 67.0538C406.089 67.0538 405.228 67.3222 404.538 67.8592C403.847 68.3961 403.327 69.1376 402.978 70.0836C402.629 71.0296 402.454 72.112 402.454 73.3307C402.454 74.558 402.629 75.6532 402.978 76.6163C403.336 77.5708 403.86 78.3251 404.55 78.879C405.249 79.4245 406.106 79.6972 407.12 79.6972ZM439.953 63.5126V67.0921H428.664V63.5126H439.953ZM431.451 58.808H436.079V77.2427C436.079 77.8648 436.173 78.3421 436.36 78.6745C436.556 78.9984 436.812 79.2199 437.127 79.3393C437.443 79.4586 437.792 79.5182 438.176 79.5182C438.466 79.5182 438.73 79.4969 438.968 79.4543C439.216 79.4117 439.403 79.3734 439.531 79.3393L440.311 82.9572C440.064 83.0424 439.71 83.1361 439.25 83.2384C438.798 83.3407 438.244 83.4003 437.588 83.4174C436.429 83.4515 435.385 83.2768 434.456 82.8932C433.527 82.5012 432.789 81.8961 432.244 81.0779C431.707 80.2597 431.443 79.237 431.451 78.0097V58.808ZM448.873 71.6432V83.1489H444.245V56.9671H448.771V66.8492H449.001C449.461 65.7413 450.173 64.8677 451.136 64.2285C452.107 63.5807 453.343 63.2569 454.843 63.2569C456.207 63.2569 457.396 63.5424 458.41 64.1134C459.424 64.6844 460.208 65.5197 460.762 66.6191C461.325 67.7185 461.606 69.0609 461.606 70.6461V83.1489H456.978V71.362C456.978 70.041 456.637 69.014 455.955 68.281C455.282 67.5396 454.336 67.1688 453.117 67.1688C452.299 67.1688 451.566 67.3478 450.918 67.7057C450.279 68.0552 449.776 68.5623 449.41 69.2271C449.052 69.8918 448.873 70.6972 448.873 71.6432ZM471.974 83.5452C470.729 83.5452 469.609 83.3236 468.612 82.8805C467.623 82.4288 466.839 81.764 466.259 80.8861C465.688 80.0083 465.403 78.9259 465.403 77.639C465.403 76.531 465.607 75.6148 466.016 74.8904C466.425 74.166 466.984 73.5864 467.691 73.1518C468.398 72.7171 469.195 72.389 470.082 72.1674C470.977 71.9373 471.901 71.7711 472.856 71.6688C474.006 71.5495 474.94 71.443 475.656 71.3492C476.371 71.2469 476.891 71.0935 477.215 70.889C477.548 70.6759 477.714 70.3478 477.714 69.9046V69.8279C477.714 68.8648 477.428 68.1191 476.857 67.5907C476.286 67.0623 475.464 66.7981 474.39 66.7981C473.256 66.7981 472.357 67.0452 471.692 67.5396C471.036 68.0339 470.593 68.6177 470.363 69.291L466.042 68.6773C466.383 67.4842 466.945 66.487 467.729 65.6859C468.513 64.8762 469.472 64.2711 470.606 63.8705C471.739 63.4614 472.992 63.2569 474.364 63.2569C475.31 63.2569 476.252 63.3677 477.19 63.5893C478.127 63.8109 478.984 64.1773 479.759 64.6887C480.535 65.1915 481.157 65.8776 481.626 66.7469C482.103 67.6163 482.342 68.7029 482.342 70.0069V83.1489H477.893V80.4515H477.739C477.458 80.9969 477.062 81.5083 476.55 81.9856C476.048 82.4543 475.413 82.8336 474.646 83.1234C473.887 83.4046 472.996 83.5452 471.974 83.5452ZM473.175 80.1447C474.104 80.1447 474.91 79.9614 475.592 79.5949C476.273 79.2199 476.798 78.7256 477.164 78.112C477.539 77.4984 477.727 76.8293 477.727 76.1049V73.791C477.582 73.9103 477.335 74.0211 476.985 74.1234C476.644 74.2256 476.261 74.3151 475.835 74.3918C475.408 74.4685 474.987 74.5367 474.569 74.5964C474.151 74.656 473.789 74.7072 473.482 74.7498C472.792 74.8435 472.174 74.9969 471.629 75.21C471.083 75.4231 470.653 75.7214 470.337 76.1049C470.022 76.4799 469.864 76.9657 469.864 77.5623C469.864 78.4146 470.175 79.058 470.798 79.4927C471.42 79.9273 472.212 80.1447 473.175 80.1447ZM496.8 63.5126V67.0921H485.512V63.5126H496.8ZM488.299 58.808H492.927V77.2427C492.927 77.8648 493.021 78.3421 493.208 78.6745C493.404 78.9984 493.66 79.2199 493.975 79.3393C494.29 79.4586 494.64 79.5182 495.023 79.5182C495.313 79.5182 495.577 79.4969 495.816 79.4543C496.063 79.4117 496.251 79.3734 496.379 79.3393L497.158 82.9572C496.911 83.0424 496.558 83.1361 496.097 83.2384C495.646 83.3407 495.092 83.4003 494.435 83.4174C493.276 83.4515 492.232 83.2768 491.303 82.8932C490.374 82.5012 489.637 81.8961 489.092 81.0779C488.555 80.2597 488.29 79.237 488.299 78.0097V58.808ZM518.856 83.5069C516.956 83.5069 515.268 83.1873 513.794 82.5481C512.328 81.9089 511.177 81.0353 510.342 79.9273C509.515 78.8109 509.106 77.5452 509.115 76.1305C509.106 75.031 509.345 74.0211 509.831 73.1006C510.316 72.1802 510.973 71.4131 511.799 70.7995C512.635 70.1773 513.564 69.781 514.586 69.6106V69.4316C513.24 69.1333 512.149 68.4472 511.314 67.3734C510.487 66.291 510.078 65.0424 510.086 63.6276C510.078 62.281 510.453 61.0793 511.211 60.0225C511.97 58.9657 513.01 58.1347 514.331 57.5296C515.652 56.916 517.16 56.6092 518.856 56.6092C520.535 56.6092 522.031 56.916 523.343 57.5296C524.664 58.1347 525.704 58.9657 526.463 60.0225C527.23 61.0793 527.613 62.281 527.613 63.6276C527.613 65.0424 527.191 66.291 526.348 67.3734C525.512 68.4472 524.434 69.1333 523.113 69.4316V69.6106C524.136 69.781 525.056 70.1773 525.875 70.7995C526.701 71.4131 527.358 72.1802 527.843 73.1006C528.338 74.0211 528.585 75.031 528.585 76.1305C528.585 77.5452 528.167 78.8109 527.332 79.9273C526.497 81.0353 525.346 81.9089 523.88 82.5481C522.423 83.1873 520.748 83.5069 518.856 83.5069ZM518.856 79.8506C519.836 79.8506 520.689 79.6844 521.413 79.3521C522.137 79.0111 522.7 78.5339 523.1 77.9202C523.501 77.3066 523.706 76.5992 523.714 75.7981C523.706 74.9628 523.488 74.2256 523.062 73.5864C522.645 72.9387 522.069 72.4316 521.336 72.0651C520.612 71.6986 519.785 71.5154 518.856 71.5154C517.919 71.5154 517.083 71.6986 516.35 72.0651C515.618 72.4316 515.038 72.9387 514.612 73.5864C514.194 74.2256 513.99 74.9628 513.998 75.7981C513.99 76.5992 514.186 77.3066 514.586 77.9202C514.987 78.5253 515.549 78.9984 516.274 79.3393C517.007 79.6802 517.868 79.8506 518.856 79.8506ZM518.856 67.9231C519.657 67.9231 520.365 67.7611 520.978 67.4373C521.6 67.1134 522.091 66.6617 522.449 66.0822C522.806 65.5026 522.99 64.8336 522.998 64.0751C522.99 63.3251 522.811 62.6688 522.461 62.1063C522.112 61.5353 521.626 61.0964 521.004 60.7896C520.382 60.4742 519.666 60.3165 518.856 60.3165C518.029 60.3165 517.301 60.4742 516.67 60.7896C516.048 61.0964 515.562 61.5353 515.213 62.1063C514.872 62.6688 514.706 63.3251 514.714 64.0751C514.706 64.8336 514.876 65.5026 515.225 66.0822C515.583 66.6532 516.074 67.1049 516.696 67.4373C517.326 67.7611 518.047 67.9231 518.856 67.9231ZM546.786 78.2398V76.8592C546.786 75.8449 546.999 74.9117 547.425 74.0594C547.86 73.2072 548.491 72.5211 549.317 72.0012C550.144 71.4813 551.146 71.2214 552.322 71.2214C553.532 71.2214 554.546 71.4813 555.364 72.0012C556.183 72.5126 556.8 73.1944 557.218 74.0467C557.644 74.8989 557.857 75.8364 557.857 76.8592V78.2398C557.857 79.254 557.644 80.1873 557.218 81.0396C556.792 81.8918 556.165 82.5779 555.339 83.0978C554.521 83.6177 553.515 83.8776 552.322 83.8776C551.129 83.8776 550.119 83.6177 549.292 83.0978C548.465 82.5779 547.839 81.8918 547.413 81.0396C546.995 80.1873 546.786 79.254 546.786 78.2398ZM550.123 76.8592V78.2398C550.123 78.9131 550.285 79.531 550.609 80.0935C550.933 80.656 551.504 80.9373 552.322 80.9373C553.148 80.9373 553.715 80.6603 554.022 80.1063C554.337 79.5438 554.495 78.9217 554.495 78.2398V76.8592C554.495 76.1773 554.346 75.5552 554.048 74.9927C553.749 74.4217 553.174 74.1361 552.322 74.1361C551.521 74.1361 550.954 74.4217 550.621 74.9927C550.289 75.5552 550.123 76.1773 550.123 76.8592ZM533.478 63.2569V61.8762C533.478 60.8535 533.695 59.916 534.13 59.0637C534.565 58.2114 535.195 57.5296 536.022 57.0182C536.849 56.4984 537.85 56.2384 539.026 56.2384C540.228 56.2384 541.238 56.4984 542.056 57.0182C542.883 57.5296 543.505 58.2114 543.923 59.0637C544.34 59.916 544.549 60.8535 544.549 61.8762V63.2569C544.549 64.2796 544.336 65.2171 543.91 66.0694C543.492 66.9131 542.87 67.5907 542.043 68.1021C541.217 68.6134 540.211 68.8691 539.026 68.8691C537.825 68.8691 536.81 68.6134 535.984 68.1021C535.165 67.5907 534.543 66.9089 534.117 66.0566C533.691 65.2043 533.478 64.2711 533.478 63.2569ZM536.84 61.8762V63.2569C536.84 63.9387 536.998 64.5609 537.313 65.1234C537.637 65.6773 538.208 65.9543 539.026 65.9543C539.844 65.9543 540.407 65.6773 540.714 65.1234C541.029 64.5609 541.187 63.9387 541.187 63.2569V61.8762C541.187 61.1944 541.038 60.5722 540.739 60.0097C540.441 59.4387 539.87 59.1532 539.026 59.1532C538.217 59.1532 537.65 59.4387 537.326 60.0097C537.002 60.5807 536.84 61.2029 536.84 61.8762ZM534.935 83.1489L552.935 56.9671H556.131L538.131 83.1489H534.935ZM580.709 83.5324C578.791 83.5324 577.129 83.1106 575.723 82.2668C574.317 81.4231 573.226 80.2427 572.45 78.7256C571.683 77.2086 571.3 75.4359 571.3 73.4074C571.3 71.379 571.683 69.6021 572.45 68.0765C573.226 66.5509 574.317 65.3663 575.723 64.5225C577.129 63.6788 578.791 63.2569 580.709 63.2569C582.626 63.2569 584.288 63.6788 585.695 64.5225C587.101 65.3663 588.188 66.5509 588.955 68.0765C589.73 69.6021 590.118 71.379 590.118 73.4074C590.118 75.4359 589.73 77.2086 588.955 78.7256C588.188 80.2427 587.101 81.4231 585.695 82.2668C584.288 83.1106 582.626 83.5324 580.709 83.5324ZM580.734 79.8251C581.774 79.8251 582.643 79.5396 583.342 78.9685C584.041 78.389 584.561 77.6134 584.902 76.6418C585.251 75.6702 585.426 74.5878 585.426 73.3947C585.426 72.193 585.251 71.1063 584.902 70.1347C584.561 69.1546 584.041 68.3748 583.342 67.7952C582.643 67.2157 581.774 66.9259 580.734 66.9259C579.669 66.9259 578.783 67.2157 578.075 67.7952C577.376 68.3748 576.852 69.1546 576.503 70.1347C576.162 71.1063 575.991 72.193 575.991 73.3947C575.991 74.5878 576.162 75.6702 576.503 76.6418C576.852 77.6134 577.376 78.389 578.075 78.9685C578.783 79.5396 579.669 79.8251 580.734 79.8251ZM603.992 63.5126V67.0921H592.384V63.5126H603.992ZM595.286 83.1489V61.6589C595.286 60.3378 595.559 59.2384 596.104 58.3606C596.658 57.4827 597.4 56.8265 598.328 56.3918C599.257 55.9572 600.289 55.7398 601.422 55.7398C602.223 55.7398 602.935 55.8038 603.557 55.9316C604.179 56.0594 604.64 56.1745 604.938 56.2768L604.017 59.8563C603.821 59.7967 603.574 59.737 603.276 59.6773C602.978 59.6092 602.645 59.5751 602.279 59.5751C601.418 59.5751 600.809 59.7839 600.451 60.2015C600.101 60.6106 599.926 61.1986 599.926 61.9657V83.1489H595.286ZM632.066 68.7029L627.847 69.1631C627.728 68.737 627.519 68.3364 627.221 67.9614C626.931 67.5864 626.539 67.2839 626.044 67.0538C625.55 66.8236 624.945 66.7086 624.229 66.7086C623.266 66.7086 622.456 66.9174 621.8 67.335C621.152 67.7526 620.833 68.2938 620.841 68.9586C620.833 69.5296 621.042 69.9941 621.468 70.3521C621.902 70.71 622.618 71.004 623.615 71.2342L626.965 71.9501C628.823 72.3506 630.203 72.9856 631.107 73.8549C632.019 74.7242 632.479 75.862 632.488 77.2682C632.479 78.504 632.117 79.5949 631.401 80.541C630.694 81.4785 629.709 82.2114 628.448 82.7398C627.186 83.2682 625.738 83.5324 624.101 83.5324C621.698 83.5324 619.763 83.0296 618.297 82.0239C616.831 81.0097 615.958 79.5992 615.676 77.7924L620.189 77.3577C620.394 78.2441 620.828 78.9131 621.493 79.3648C622.158 79.8165 623.023 80.0424 624.088 80.0424C625.188 80.0424 626.07 79.8165 626.735 79.3648C627.408 78.9131 627.745 78.3549 627.745 77.6901C627.745 77.1276 627.527 76.6631 627.093 76.2967C626.667 75.9302 626.002 75.6489 625.098 75.4529L621.749 74.7498C619.865 74.3577 618.472 73.6972 617.569 72.7682C616.665 71.8307 616.218 70.6461 616.226 69.2143C616.218 68.004 616.546 66.9557 617.211 66.0694C617.884 65.1745 618.817 64.4842 620.01 63.9984C621.212 63.504 622.597 63.2569 624.165 63.2569C626.466 63.2569 628.277 63.7469 629.598 64.7271C630.928 65.7072 631.75 67.0324 632.066 68.7029ZM648.819 74.8904V63.5126H653.447V83.1489H648.96V79.6589H648.755C648.312 80.7583 647.583 81.6574 646.569 82.3563C645.564 83.0552 644.324 83.4046 642.849 83.4046C641.562 83.4046 640.424 83.1191 639.436 82.5481C638.456 81.9685 637.689 81.129 637.135 80.0296C636.581 78.9217 636.304 77.5836 636.304 76.0154V63.5126H640.931V75.2995C640.931 76.5438 641.272 77.5324 641.954 78.2654C642.636 78.9984 643.531 79.3648 644.639 79.3648C645.321 79.3648 645.981 79.1986 646.62 78.8663C647.26 78.5339 647.784 78.0396 648.193 77.3833C648.61 76.7185 648.819 75.8876 648.819 74.8904ZM658.206 83.1489V63.5126H662.693V66.7853H662.898C663.256 65.6518 663.869 64.7782 664.739 64.1646C665.616 63.5424 666.618 63.2313 667.743 63.2313C667.999 63.2313 668.284 63.2441 668.599 63.2697C668.923 63.2867 669.192 63.3165 669.405 63.3592V67.6163C669.209 67.5481 668.898 67.4884 668.472 67.4373C668.054 67.3776 667.649 67.3478 667.257 67.3478C666.413 67.3478 665.655 67.531 664.982 67.8975C664.317 68.2555 663.793 68.754 663.409 69.3932C663.026 70.0324 662.834 70.7697 662.834 71.6049V83.1489H658.206ZM690.617 63.5126L683.624 83.1489H678.51L671.517 63.5126H676.452L680.965 78.0992H681.169L685.695 63.5126H690.617ZM701.844 83.5324C699.876 83.5324 698.175 83.1234 696.744 82.3052C695.32 81.4785 694.225 80.3109 693.458 78.8023C692.691 77.2853 692.308 75.4998 692.308 73.4458C692.308 71.4259 692.691 69.6532 693.458 68.1276C694.234 66.5935 695.316 65.4003 696.705 64.5481C698.094 63.6873 699.727 63.2569 701.602 63.2569C702.812 63.2569 703.954 63.4529 705.028 63.8449C706.11 64.2285 707.065 64.8251 707.891 65.6347C708.727 66.4444 709.383 67.4756 709.86 68.7285C710.337 69.9728 710.576 71.4557 710.576 73.1773V74.5964H694.481V71.4771H706.14C706.131 70.5907 705.94 69.8023 705.565 69.112C705.19 68.4131 704.665 67.8634 703.992 67.4628C703.327 67.0623 702.552 66.862 701.665 66.862C700.719 66.862 699.888 67.0921 699.173 67.5523C698.457 68.004 697.898 68.6006 697.498 69.3421C697.106 70.0751 696.906 70.8805 696.897 71.7583V74.4813C696.897 75.6234 697.106 76.6035 697.523 77.4217C697.941 78.2313 698.525 78.8535 699.275 79.2881C700.025 79.7143 700.903 79.9273 701.908 79.9273C702.582 79.9273 703.191 79.8336 703.737 79.6461C704.282 79.4501 704.755 79.1646 705.156 78.7896C705.556 78.4146 705.859 77.9501 706.063 77.3961L710.384 77.8819C710.112 79.0239 709.592 80.0211 708.825 80.8734C708.066 81.7171 707.094 82.3734 705.91 82.8421C704.725 83.3023 703.37 83.5324 701.844 83.5324ZM716.805 90.5126C716.174 90.5126 715.591 90.4614 715.054 90.3592C714.525 90.2654 714.103 90.1546 713.788 90.0268L714.862 86.4217C715.535 86.6177 716.136 86.7114 716.664 86.7029C717.193 86.6944 717.657 86.5282 718.058 86.2043C718.467 85.889 718.812 85.3606 719.093 84.6191L719.49 83.558L712.369 63.5126H717.278L721.804 78.3421H722.008L726.547 63.5126H731.468L723.606 85.5268C723.24 86.5665 722.754 87.4572 722.149 88.1986C721.544 88.9486 720.802 89.5197 719.924 89.9117C719.055 90.3123 718.015 90.5126 716.805 90.5126ZM742.696 83.5324C740.727 83.5324 739.027 83.1234 737.595 82.3052C736.172 81.4785 735.077 80.3109 734.31 78.8023C733.543 77.2853 733.159 75.4998 733.159 73.4458C733.159 71.4259 733.543 69.6532 734.31 68.1276C735.085 66.5935 736.168 65.4003 737.557 64.5481C738.946 63.6873 740.578 63.2569 742.453 63.2569C743.663 63.2569 744.805 63.4529 745.879 63.8449C746.962 64.2285 747.916 64.8251 748.743 65.6347C749.578 66.4444 750.234 67.4756 750.712 68.7285C751.189 69.9728 751.428 71.4557 751.428 73.1773V74.5964H735.332V71.4771H746.991C746.983 70.5907 746.791 69.8023 746.416 69.112C746.041 68.4131 745.517 67.8634 744.844 67.4628C744.179 67.0623 743.403 66.862 742.517 66.862C741.571 66.862 740.74 67.0921 740.024 67.5523C739.308 68.004 738.75 68.6006 738.349 69.3421C737.957 70.0751 737.757 70.8805 737.749 71.7583V74.4813C737.749 75.6234 737.957 76.6035 738.375 77.4217C738.793 78.2313 739.376 78.8535 740.126 79.2881C740.876 79.7143 741.754 79.9273 742.76 79.9273C743.433 79.9273 744.043 79.8336 744.588 79.6461C745.134 79.4501 745.607 79.1646 746.007 78.7896C746.408 78.4146 746.71 77.9501 746.915 77.3961L751.236 77.8819C750.963 79.0239 750.443 80.0211 749.676 80.8734C748.918 81.7171 747.946 82.3734 746.761 82.8421C745.577 83.3023 744.222 83.5324 742.696 83.5324ZM762.63 83.4941C761.087 83.4941 759.706 83.0978 758.488 82.3052C757.269 81.5126 756.306 80.362 755.598 78.8535C754.891 77.3449 754.537 75.5126 754.537 73.3563C754.537 71.1745 754.895 69.3336 755.611 67.8336C756.336 66.3251 757.311 65.1873 758.539 64.4202C759.766 63.6447 761.134 63.2569 762.642 63.2569C763.793 63.2569 764.739 63.4529 765.48 63.8449C766.222 64.2285 766.81 64.693 767.245 65.2384C767.679 65.7753 768.016 66.2824 768.255 66.7597H768.446V56.9671H773.087V83.1489H768.536V80.0552H768.255C768.016 80.5324 767.671 81.0396 767.219 81.5765C766.767 82.1049 766.171 82.5566 765.429 82.9316C764.688 83.3066 763.755 83.4941 762.63 83.4941ZM763.921 79.6972C764.901 79.6972 765.736 79.433 766.426 78.9046C767.117 78.3677 767.641 77.6219 767.999 76.6674C768.357 75.7128 768.536 74.6006 768.536 73.3307C768.536 72.0609 768.357 70.9572 767.999 70.0197C767.65 69.0822 767.13 68.3535 766.439 67.8336C765.757 67.3137 764.918 67.0538 763.921 67.0538C762.89 67.0538 762.029 67.3222 761.338 67.8592C760.648 68.3961 760.128 69.1376 759.779 70.0836C759.429 71.0296 759.255 72.112 759.255 73.3307C759.255 74.558 759.429 75.6532 759.779 76.6163C760.137 77.5708 760.661 78.3251 761.351 78.879C762.05 79.4245 762.907 79.6972 763.921 79.6972ZM791.576 71.6432V83.1489H786.948V56.9671H791.474V66.8492H791.704C792.164 65.7413 792.876 64.8677 793.839 64.2285C794.81 63.5807 796.046 63.2569 797.546 63.2569C798.91 63.2569 800.099 63.5424 801.113 64.1134C802.127 64.6844 802.911 65.5197 803.465 66.6191C804.028 67.7185 804.309 69.0609 804.309 70.6461V83.1489H799.681V71.362C799.681 70.041 799.34 69.014 798.658 68.281C797.985 67.5396 797.039 67.1688 795.82 67.1688C795.002 67.1688 794.269 67.3478 793.621 67.7057C792.982 68.0552 792.479 68.5623 792.113 69.2271C791.755 69.8918 791.576 70.6972 791.576 71.6432ZM809.026 83.1489V63.5126H813.654V83.1489H809.026ZM811.353 60.7256C810.62 60.7256 809.989 60.4827 809.461 59.9969C808.933 59.5026 808.668 58.9103 808.668 58.2199C808.668 57.5211 808.933 56.9288 809.461 56.443C809.989 55.9486 810.62 55.7015 811.353 55.7015C812.094 55.7015 812.725 55.9486 813.245 56.443C813.773 56.9288 814.038 57.5211 814.038 58.2199C814.038 58.9103 813.773 59.5026 813.245 59.9969C812.725 60.4827 812.094 60.7256 811.353 60.7256ZM826.953 90.9217C825.291 90.9217 823.863 90.6958 822.67 90.2441C821.477 89.8009 820.518 89.2043 819.794 88.4543C819.069 87.7043 818.566 86.8734 818.285 85.9614L822.453 84.9515C822.64 85.335 822.913 85.7143 823.271 86.0893C823.629 86.4728 824.11 86.7881 824.716 87.0353C825.329 87.291 826.1 87.4188 827.029 87.4188C828.342 87.4188 829.429 87.0992 830.289 86.46C831.15 85.8293 831.581 84.7896 831.581 83.3407V79.6205H831.35C831.112 80.0978 830.762 80.5878 830.302 81.0907C829.85 81.5935 829.25 82.0154 828.5 82.3563C827.758 82.6972 826.825 82.8677 825.7 82.8677C824.191 82.8677 822.824 82.514 821.596 81.8066C820.377 81.0907 819.406 80.0253 818.681 78.6106C817.966 77.1873 817.608 75.406 817.608 73.2668C817.608 71.1106 817.966 69.291 818.681 67.808C819.406 66.3165 820.382 65.1873 821.609 64.4202C822.836 63.6447 824.204 63.2569 825.713 63.2569C826.863 63.2569 827.809 63.4529 828.551 63.8449C829.301 64.2285 829.897 64.693 830.341 65.2384C830.784 65.7753 831.12 66.2824 831.35 66.7597H831.606V63.5126H836.17V83.4685C836.17 85.1475 835.77 86.5367 834.968 87.6361C834.167 88.7356 833.072 89.558 831.683 90.1035C830.294 90.6489 828.717 90.9217 826.953 90.9217ZM826.991 79.237C827.971 79.237 828.806 78.9984 829.497 78.5211C830.187 78.0438 830.711 77.3577 831.069 76.4628C831.427 75.568 831.606 74.4941 831.606 73.2413C831.606 72.0055 831.427 70.9231 831.069 69.9941C830.72 69.0651 830.2 68.3449 829.51 67.8336C828.828 67.3137 827.988 67.0538 826.991 67.0538C825.96 67.0538 825.099 67.3222 824.409 67.8592C823.718 68.3961 823.199 69.1333 822.849 70.0708C822.5 70.9998 822.325 72.0566 822.325 73.2413C822.325 74.443 822.5 75.4955 822.849 76.3989C823.207 77.2938 823.731 77.9927 824.422 78.4955C825.12 78.9898 825.977 79.237 826.991 79.237ZM845.541 71.6432V83.1489H840.913V56.9671H845.439V66.8492H845.669C846.129 65.7413 846.841 64.8677 847.804 64.2285C848.775 63.5807 850.011 63.2569 851.511 63.2569C852.875 63.2569 854.064 63.5424 855.078 64.1134C856.092 64.6844 856.876 65.5197 857.43 66.6191C857.993 67.7185 858.274 69.0609 858.274 70.6461V83.1489H853.646V71.362C853.646 70.041 853.305 69.014 852.623 68.281C851.95 67.5396 851.004 67.1688 849.785 67.1688C848.967 67.1688 848.234 67.3478 847.586 67.7057C846.947 68.0552 846.444 68.5623 846.078 69.2271C845.72 69.8918 845.541 70.6972 845.541 71.6432ZM871.684 83.5324C869.716 83.5324 868.015 83.1234 866.583 82.3052C865.16 81.4785 864.065 80.3109 863.298 78.8023C862.531 77.2853 862.147 75.4998 862.147 73.4458C862.147 71.4259 862.531 69.6532 863.298 68.1276C864.074 66.5935 865.156 65.4003 866.545 64.5481C867.934 63.6873 869.566 63.2569 871.441 63.2569C872.652 63.2569 873.794 63.4529 874.868 63.8449C875.95 64.2285 876.904 64.8251 877.731 65.6347C878.566 66.4444 879.223 67.4756 879.7 68.7285C880.177 69.9728 880.416 71.4557 880.416 73.1773V74.5964H864.321V71.4771H875.98C875.971 70.5907 875.779 69.8023 875.404 69.112C875.029 68.4131 874.505 67.8634 873.832 67.4628C873.167 67.0623 872.392 66.862 871.505 66.862C870.559 66.862 869.728 67.0921 869.012 67.5523C868.297 68.004 867.738 68.6006 867.338 69.3421C866.946 70.0751 866.745 70.8805 866.737 71.7583V74.4813C866.737 75.6234 866.946 76.6035 867.363 77.4217C867.781 78.2313 868.365 78.8535 869.115 79.2881C869.865 79.7143 870.743 79.9273 871.748 79.9273C872.422 79.9273 873.031 79.8336 873.576 79.6461C874.122 79.4501 874.595 79.1646 874.995 78.7896C875.396 78.4146 875.699 77.9501 875.903 77.3961L880.224 77.8819C879.951 79.0239 879.431 80.0211 878.664 80.8734C877.906 81.7171 876.934 82.3734 875.75 82.8421C874.565 83.3023 873.21 83.5324 871.684 83.5324ZM884.331 83.1489V63.5126H888.818V66.7853H889.023C889.381 65.6518 889.994 64.7782 890.864 64.1646C891.741 63.5424 892.743 63.2313 893.868 63.2313C894.124 63.2313 894.409 63.2441 894.724 63.2697C895.048 63.2867 895.317 63.3165 895.53 63.3592V67.6163C895.334 67.5481 895.023 67.4884 894.597 67.4373C894.179 67.3776 893.774 67.3478 893.382 67.3478C892.538 67.3478 891.78 67.531 891.107 67.8975C890.442 68.2555 889.918 68.754 889.534 69.3932C889.151 70.0324 888.959 70.7697 888.959 71.6049V83.1489H884.331ZM916.227 83.5324C914.259 83.5324 912.558 83.1234 911.126 82.3052C909.703 81.4785 908.608 80.3109 907.841 78.8023C907.074 77.2853 906.69 75.4998 906.69 73.4458C906.69 71.4259 907.074 69.6532 907.841 68.1276C908.616 66.5935 909.699 65.4003 911.088 64.5481C912.477 63.6873 914.109 63.2569 915.984 63.2569C917.195 63.2569 918.337 63.4529 919.411 63.8449C920.493 64.2285 921.447 64.8251 922.274 65.6347C923.109 66.4444 923.766 67.4756 924.243 68.7285C924.72 69.9728 924.959 71.4557 924.959 73.1773V74.5964H908.864V71.4771H920.523C920.514 70.5907 920.322 69.8023 919.947 69.112C919.572 68.4131 919.048 67.8634 918.375 67.4628C917.71 67.0623 916.935 66.862 916.048 66.862C915.102 66.862 914.271 67.0921 913.555 67.5523C912.839 68.004 912.281 68.6006 911.881 69.3421C911.489 70.0751 911.288 70.8805 911.28 71.7583V74.4813C911.28 75.6234 911.489 76.6035 911.906 77.4217C912.324 78.2313 912.908 78.8535 913.658 79.2881C914.408 79.7143 915.286 79.9273 916.291 79.9273C916.964 79.9273 917.574 79.8336 918.119 79.6461C918.665 79.4501 919.138 79.1646 919.538 78.7896C919.939 78.4146 920.241 77.9501 920.446 77.3961L924.767 77.8819C924.494 79.0239 923.974 80.0211 923.207 80.8734C922.449 81.7171 921.477 82.3734 920.293 82.8421C919.108 83.3023 917.753 83.5324 916.227 83.5324ZM936.161 83.4941C934.618 83.4941 933.238 83.0978 932.019 82.3052C930.8 81.5126 929.837 80.362 929.13 78.8535C928.422 77.3449 928.069 75.5126 928.069 73.3563C928.069 71.1745 928.426 69.3336 929.142 67.8336C929.867 66.3251 930.843 65.1873 932.07 64.4202C933.297 63.6447 934.665 63.2569 936.174 63.2569C937.324 63.2569 938.27 63.4529 939.012 63.8449C939.753 64.2285 940.341 64.693 940.776 65.2384C941.211 65.7753 941.547 66.2824 941.786 66.7597H941.978V56.9671H946.618V83.1489H942.067V80.0552H941.786C941.547 80.5324 941.202 81.0396 940.75 81.5765C940.299 82.1049 939.702 82.5566 938.961 82.9316C938.219 83.3066 937.286 83.4941 936.161 83.4941ZM937.452 79.6972C938.432 79.6972 939.267 79.433 939.958 78.9046C940.648 78.3677 941.172 77.6219 941.53 76.6674C941.888 75.7128 942.067 74.6006 942.067 73.3307C942.067 72.0609 941.888 70.9572 941.53 70.0197C941.181 69.0822 940.661 68.3535 939.971 67.8336C939.289 67.3137 938.449 67.0538 937.452 67.0538C936.421 67.0538 935.56 67.3222 934.87 67.8592C934.179 68.3961 933.659 69.1376 933.31 70.0836C932.961 71.0296 932.786 72.112 932.786 73.3307C932.786 74.558 932.961 75.6532 933.31 76.6163C933.668 77.5708 934.192 78.3251 934.882 78.879C935.581 79.4245 936.438 79.6972 937.452 79.6972ZM964.065 74.8904V63.5126H968.693V83.1489H964.206V79.6589H964.001C963.558 80.7583 962.83 81.6574 961.815 82.3563C960.81 83.0552 959.57 83.4046 958.095 83.4046C956.808 83.4046 955.67 83.1191 954.682 82.5481C953.702 81.9685 952.935 81.129 952.381 80.0296C951.827 78.9217 951.55 77.5836 951.55 76.0154V63.5126H956.178V75.2995C956.178 76.5438 956.518 77.5324 957.2 78.2654C957.882 78.9984 958.777 79.3648 959.885 79.3648C960.567 79.3648 961.227 79.1986 961.866 78.8663C962.506 78.5339 963.03 78.0396 963.439 77.3833C963.857 76.7185 964.065 75.8876 964.065 74.8904ZM982.017 83.5324C980.057 83.5324 978.374 83.1021 976.968 82.2413C975.57 81.3805 974.492 80.1915 973.733 78.6745C972.983 77.1489 972.608 75.3932 972.608 73.4074C972.608 71.4131 972.992 69.6532 973.759 68.1276C974.526 66.5935 975.608 65.4003 977.006 64.5481C978.412 63.6873 980.074 63.2569 981.992 63.2569C983.586 63.2569 984.996 63.5509 986.223 64.139C987.459 64.7185 988.444 65.541 989.176 66.6063C989.909 67.6631 990.327 68.8989 990.429 70.3137H986.006C985.827 69.3677 985.401 68.5793 984.728 67.9486C984.063 67.3094 983.172 66.9898 982.056 66.9898C981.11 66.9898 980.279 67.2455 979.563 67.7569C978.847 68.2597 978.289 68.9842 977.888 69.9302C977.496 70.8762 977.3 72.0097 977.3 73.3307C977.3 74.6688 977.496 75.8194 977.888 76.7824C978.28 77.737 978.83 78.4742 979.537 78.9941C980.253 79.5055 981.093 79.7611 982.056 79.7611C982.738 79.7611 983.347 79.6333 983.884 79.3776C984.429 79.1134 984.885 78.7342 985.252 78.2398C985.618 77.7455 985.87 77.1447 986.006 76.4373H990.429C990.319 77.8265 989.909 79.058 989.202 80.1319C988.495 81.1972 987.532 82.0324 986.313 82.6376C985.094 83.2342 983.662 83.5324 982.017 83.5324ZM999.88 83.5452C998.636 83.5452 997.515 83.3236 996.518 82.8805C995.529 82.4288 994.745 81.764 994.165 80.8861C993.594 80.0083 993.309 78.9259 993.309 77.639C993.309 76.531 993.513 75.6148 993.923 74.8904C994.332 74.166 994.89 73.5864 995.597 73.1518C996.305 72.7171 997.102 72.389 997.988 72.1674C998.883 71.9373 999.808 71.7711 1000.76 71.6688C1001.91 71.5495 1002.85 71.443 1003.56 71.3492C1004.28 71.2469 1004.8 71.0935 1005.12 70.889C1005.45 70.6759 1005.62 70.3478 1005.62 69.9046V69.8279C1005.62 68.8648 1005.33 68.1191 1004.76 67.5907C1004.19 67.0623 1003.37 66.7981 1002.3 66.7981C1001.16 66.7981 1000.26 67.0452 999.599 67.5396C998.942 68.0339 998.499 68.6177 998.269 69.291L993.948 68.6773C994.289 67.4842 994.852 66.487 995.636 65.6859C996.42 64.8762 997.379 64.2711 998.512 63.8705C999.646 63.4614 1000.9 63.2569 1002.27 63.2569C1003.22 63.2569 1004.16 63.3677 1005.1 63.5893C1006.03 63.8109 1006.89 64.1773 1007.67 64.6887C1008.44 65.1915 1009.06 65.8776 1009.53 66.7469C1010.01 67.6163 1010.25 68.7029 1010.25 70.0069V83.1489H1005.8V80.4515H1005.65C1005.36 80.9969 1004.97 81.5083 1004.46 81.9856C1003.95 82.4543 1003.32 82.8336 1002.55 83.1234C1001.79 83.4046 1000.9 83.5452 999.88 83.5452ZM1001.08 80.1447C1002.01 80.1447 1002.82 79.9614 1003.5 79.5949C1004.18 79.2199 1004.7 78.7256 1005.07 78.112C1005.45 77.4984 1005.63 76.8293 1005.63 76.1049V73.791C1005.49 73.9103 1005.24 74.0211 1004.89 74.1234C1004.55 74.2256 1004.17 74.3151 1003.74 74.3918C1003.31 74.4685 1002.89 74.5367 1002.48 74.5964C1002.06 74.656 1001.7 74.7072 1001.39 74.7498C1000.7 74.8435 1000.08 74.9969 999.535 75.21C998.989 75.4231 998.559 75.7214 998.244 76.1049C997.928 76.4799 997.771 76.9657 997.771 77.5623C997.771 78.4146 998.082 79.058 998.704 79.4927C999.326 79.9273 1000.12 80.1447 1001.08 80.1447ZM1024.71 63.5126V67.0921H1013.42V63.5126H1024.71ZM1016.21 58.808H1020.83V77.2427C1020.83 77.8648 1020.93 78.3421 1021.11 78.6745C1021.31 78.9984 1021.57 79.2199 1021.88 79.3393C1022.2 79.4586 1022.55 79.5182 1022.93 79.5182C1023.22 79.5182 1023.48 79.4969 1023.72 79.4543C1023.97 79.4117 1024.16 79.3734 1024.28 79.3393L1025.06 82.9572C1024.82 83.0424 1024.46 83.1361 1024 83.2384C1023.55 83.3407 1023 83.4003 1022.34 83.4174C1021.18 83.4515 1020.14 83.2768 1019.21 82.8932C1018.28 82.5012 1017.54 81.8961 1017 81.0779C1016.46 80.2597 1016.2 79.237 1016.21 78.0097V58.808ZM1028.58 83.1489V63.5126H1033.2V83.1489H1028.58ZM1030.9 60.7256C1030.17 60.7256 1029.54 60.4827 1029.01 59.9969C1028.48 59.5026 1028.22 58.9103 1028.22 58.2199C1028.22 57.5211 1028.48 56.9288 1029.01 56.443C1029.54 55.9486 1030.17 55.7015 1030.9 55.7015C1031.65 55.7015 1032.28 55.9486 1032.8 56.443C1033.32 56.9288 1033.59 57.5211 1033.59 58.2199C1033.59 58.9103 1033.32 59.5026 1032.8 59.9969C1032.28 60.4827 1031.65 60.7256 1030.9 60.7256ZM1046.53 83.5324C1044.61 83.5324 1042.95 83.1106 1041.54 82.2668C1040.14 81.4231 1039.05 80.2427 1038.27 78.7256C1037.5 77.2086 1037.12 75.4359 1037.12 73.4074C1037.12 71.379 1037.5 69.6021 1038.27 68.0765C1039.05 66.5509 1040.14 65.3663 1041.54 64.5225C1042.95 63.6788 1044.61 63.2569 1046.53 63.2569C1048.45 63.2569 1050.11 63.6788 1051.51 64.5225C1052.92 65.3663 1054.01 66.5509 1054.77 68.0765C1055.55 69.6021 1055.94 71.379 1055.94 73.4074C1055.94 75.4359 1055.55 77.2086 1054.77 78.7256C1054.01 80.2427 1052.92 81.4231 1051.51 82.2668C1050.11 83.1106 1048.45 83.5324 1046.53 83.5324ZM1046.55 79.8251C1047.59 79.8251 1048.46 79.5396 1049.16 78.9685C1049.86 78.389 1050.38 77.6134 1050.72 76.6418C1051.07 75.6702 1051.25 74.5878 1051.25 73.3947C1051.25 72.193 1051.07 71.1063 1050.72 70.1347C1050.38 69.1546 1049.86 68.3748 1049.16 67.7952C1048.46 67.2157 1047.59 66.9259 1046.55 66.9259C1045.49 66.9259 1044.6 67.2157 1043.9 67.7952C1043.2 68.3748 1042.67 69.1546 1042.32 70.1347C1041.98 71.1063 1041.81 72.193 1041.81 73.3947C1041.81 74.5878 1041.98 75.6702 1042.32 76.6418C1042.67 77.6134 1043.2 78.389 1043.9 78.9685C1044.6 79.5396 1045.49 79.8251 1046.55 79.8251ZM1064.49 71.6432V83.1489H1059.87V63.5126H1064.29V66.8492H1064.52C1064.97 65.7498 1065.69 64.8762 1066.68 64.2285C1067.68 63.5807 1068.91 63.2569 1070.37 63.2569C1071.73 63.2569 1072.91 63.5467 1073.92 64.1262C1074.93 64.7057 1075.71 65.5452 1076.27 66.6447C1076.83 67.7441 1077.11 69.0779 1077.1 70.6461V83.1489H1072.47V71.362C1072.47 70.0495 1072.13 69.0225 1071.45 68.281C1070.78 67.5396 1069.84 67.1688 1068.65 67.1688C1067.84 67.1688 1067.12 67.3478 1066.49 67.7057C1065.87 68.0552 1065.38 68.5623 1065.02 69.2271C1064.67 69.8918 1064.49 70.6972 1064.49 71.6432ZM1106.25 68.7029L1102.03 69.1631C1101.92 68.737 1101.71 68.3364 1101.41 67.9614C1101.12 67.5864 1100.73 67.2839 1100.23 67.0538C1099.74 66.8236 1099.13 66.7086 1098.42 66.7086C1097.45 66.7086 1096.64 66.9174 1095.99 67.335C1095.34 67.7526 1095.02 68.2938 1095.03 68.9586C1095.02 69.5296 1095.23 69.9941 1095.66 70.3521C1096.09 70.71 1096.81 71.004 1097.8 71.2342L1101.15 71.9501C1103.01 72.3506 1104.39 72.9856 1105.29 73.8549C1106.21 74.7242 1106.67 75.862 1106.68 77.2682C1106.67 78.504 1106.3 79.5949 1105.59 80.541C1104.88 81.4785 1103.9 82.2114 1102.64 82.7398C1101.37 83.2682 1099.93 83.5324 1098.29 83.5324C1095.89 83.5324 1093.95 83.0296 1092.48 82.0239C1091.02 81.0097 1090.15 79.5992 1089.86 77.7924L1094.38 77.3577C1094.58 78.2441 1095.02 78.9131 1095.68 79.3648C1096.35 79.8165 1097.21 80.0424 1098.28 80.0424C1099.38 80.0424 1100.26 79.8165 1100.92 79.3648C1101.6 78.9131 1101.93 78.3549 1101.93 77.6901C1101.93 77.1276 1101.71 76.6631 1101.28 76.2967C1100.85 75.9302 1100.19 75.6489 1099.29 75.4529L1095.94 74.7498C1094.05 74.3577 1092.66 73.6972 1091.76 72.7682C1090.85 71.8307 1090.41 70.6461 1090.41 69.2143C1090.41 68.004 1090.73 66.9557 1091.4 66.0694C1092.07 65.1745 1093 64.4842 1094.2 63.9984C1095.4 63.504 1096.78 63.2569 1098.35 63.2569C1100.65 63.2569 1102.46 63.7469 1103.79 64.7271C1105.12 65.7072 1105.94 67.0324 1106.25 68.7029ZM1120.3 63.5126V67.0921H1109.01V63.5126H1120.3ZM1111.8 58.808H1116.42V77.2427C1116.42 77.8648 1116.52 78.3421 1116.7 78.6745C1116.9 78.9984 1117.16 79.2199 1117.47 79.3393C1117.79 79.4586 1118.14 79.5182 1118.52 79.5182C1118.81 79.5182 1119.07 79.4969 1119.31 79.4543C1119.56 79.4117 1119.75 79.3734 1119.87 79.3393L1120.65 82.9572C1120.41 83.0424 1120.05 83.1361 1119.59 83.2384C1119.14 83.3407 1118.59 83.4003 1117.93 83.4174C1116.77 83.4515 1115.73 83.2768 1114.8 82.8932C1113.87 82.5012 1113.13 81.8961 1112.59 81.0779C1112.05 80.2597 1111.79 79.237 1111.8 78.0097V58.808ZM1136.68 74.8904V63.5126H1141.31V83.1489H1136.82V79.6589H1136.62C1136.18 80.7583 1135.45 81.6574 1134.43 82.3563C1133.43 83.0552 1132.19 83.4046 1130.71 83.4046C1129.43 83.4046 1128.29 83.1191 1127.3 82.5481C1126.32 81.9685 1125.55 81.129 1125 80.0296C1124.44 78.9217 1124.17 77.5836 1124.17 76.0154V63.5126H1128.79V75.2995C1128.79 76.5438 1129.14 77.5324 1129.82 78.2654C1130.5 78.9984 1131.39 79.3648 1132.5 79.3648C1133.18 79.3648 1133.84 79.1986 1134.48 78.8663C1135.12 78.5339 1135.65 78.0396 1136.06 77.3833C1136.47 76.7185 1136.68 75.8876 1136.68 74.8904ZM1153.36 83.4941C1151.81 83.4941 1150.43 83.0978 1149.21 82.3052C1148 81.5126 1147.03 80.362 1146.32 78.8535C1145.62 77.3449 1145.26 75.5126 1145.26 73.3563C1145.26 71.1745 1145.62 69.3336 1146.34 67.8336C1147.06 66.3251 1148.04 65.1873 1149.27 64.4202C1150.49 63.6447 1151.86 63.2569 1153.37 63.2569C1154.52 63.2569 1155.47 63.4529 1156.21 63.8449C1156.95 64.2285 1157.54 64.693 1157.97 65.2384C1158.41 65.7753 1158.74 66.2824 1158.98 66.7597H1159.17V56.9671H1163.81V83.1489H1159.26V80.0552H1158.98C1158.74 80.5324 1158.4 81.0396 1157.95 81.5765C1157.49 82.1049 1156.9 82.5566 1156.16 82.9316C1155.41 83.3066 1154.48 83.4941 1153.36 83.4941ZM1154.65 79.6972C1155.63 79.6972 1156.46 79.433 1157.15 78.9046C1157.84 78.3677 1158.37 77.6219 1158.73 76.6674C1159.08 75.7128 1159.26 74.6006 1159.26 73.3307C1159.26 72.0609 1159.08 70.9572 1158.73 70.0197C1158.38 69.0822 1157.86 68.3535 1157.17 67.8336C1156.48 67.3137 1155.64 67.0538 1154.65 67.0538C1153.62 67.0538 1152.76 67.3222 1152.06 67.8592C1151.37 68.3961 1150.85 69.1376 1150.51 70.0836C1150.16 71.0296 1149.98 72.112 1149.98 73.3307C1149.98 74.558 1150.16 75.6532 1150.51 76.6163C1150.86 77.5708 1151.39 78.3251 1152.08 78.879C1152.78 79.4245 1153.63 79.6972 1154.65 79.6972ZM1177.44 83.5324C1175.47 83.5324 1173.77 83.1234 1172.34 82.3052C1170.91 81.4785 1169.82 80.3109 1169.05 78.8023C1168.28 77.2853 1167.9 75.4998 1167.9 73.4458C1167.9 71.4259 1168.28 69.6532 1169.05 68.1276C1169.83 66.5935 1170.91 65.4003 1172.3 64.5481C1173.69 63.6873 1175.32 63.2569 1177.2 63.2569C1178.41 63.2569 1179.55 63.4529 1180.62 63.8449C1181.7 64.2285 1182.66 64.8251 1183.49 65.6347C1184.32 66.4444 1184.98 67.4756 1185.45 68.7285C1185.93 69.9728 1186.17 71.4557 1186.17 73.1773V74.5964H1170.07V71.4771H1181.73C1181.73 70.5907 1181.53 69.8023 1181.16 69.112C1180.78 68.4131 1180.26 67.8634 1179.59 67.4628C1178.92 67.0623 1178.15 66.862 1177.26 66.862C1176.31 66.862 1175.48 67.0921 1174.77 67.5523C1174.05 68.004 1173.49 68.6006 1173.09 69.3421C1172.7 70.0751 1172.5 70.8805 1172.49 71.7583V74.4813C1172.49 75.6234 1172.7 76.6035 1173.12 77.4217C1173.53 78.2313 1174.12 78.8535 1174.87 79.2881C1175.62 79.7143 1176.5 79.9273 1177.5 79.9273C1178.18 79.9273 1178.78 79.8336 1179.33 79.6461C1179.88 79.4501 1180.35 79.1646 1180.75 78.7896C1181.15 78.4146 1181.45 77.9501 1181.66 77.3961L1185.98 77.8819C1185.71 79.0239 1185.19 80.0211 1184.42 80.8734C1183.66 81.7171 1182.69 82.3734 1181.5 82.8421C1180.32 83.3023 1178.96 83.5324 1177.44 83.5324ZM1194.71 71.6432V83.1489H1190.08V63.5126H1194.51V66.8492H1194.74C1195.19 65.7498 1195.91 64.8762 1196.9 64.2285C1197.9 63.5807 1199.13 63.2569 1200.59 63.2569C1201.95 63.2569 1203.13 63.5467 1204.13 64.1262C1205.15 64.7057 1205.93 65.5452 1206.49 66.6447C1207.05 67.7441 1207.33 69.0779 1207.32 70.6461V83.1489H1202.69V71.362C1202.69 70.0495 1202.35 69.0225 1201.67 68.281C1200.99 67.5396 1200.06 67.1688 1198.87 67.1688C1198.06 67.1688 1197.34 67.3478 1196.71 67.7057C1196.08 68.0552 1195.59 68.5623 1195.24 69.2271C1194.89 69.8918 1194.71 70.6972 1194.71 71.6432ZM1221.83 63.5126V67.0921H1210.54V63.5126H1221.83ZM1213.33 58.808H1217.95V77.2427C1217.95 77.8648 1218.05 78.3421 1218.24 78.6745C1218.43 78.9984 1218.69 79.2199 1219 79.3393C1219.32 79.4586 1219.67 79.5182 1220.05 79.5182C1220.34 79.5182 1220.6 79.4969 1220.84 79.4543C1221.09 79.4117 1221.28 79.3734 1221.41 79.3393L1222.19 82.9572C1221.94 83.0424 1221.58 83.1361 1221.12 83.2384C1220.67 83.3407 1220.12 83.4003 1219.46 83.4174C1218.3 83.4515 1217.26 83.2768 1216.33 82.8932C1215.4 82.5012 1214.66 81.8961 1214.12 81.0779C1213.58 80.2597 1213.32 79.237 1213.33 78.0097V58.808ZM1240.94 68.7029L1236.72 69.1631C1236.6 68.737 1236.39 68.3364 1236.09 67.9614C1235.8 67.5864 1235.41 67.2839 1234.92 67.0538C1234.42 66.8236 1233.82 66.7086 1233.1 66.7086C1232.14 66.7086 1231.33 66.9174 1230.67 67.335C1230.02 67.7526 1229.7 68.2938 1229.71 68.9586C1229.7 69.5296 1229.91 69.9941 1230.34 70.3521C1230.77 70.71 1231.49 71.004 1232.49 71.2342L1235.84 71.9501C1237.69 72.3506 1239.07 72.9856 1239.98 73.8549C1240.89 74.7242 1241.35 75.862 1241.36 77.2682C1241.35 78.504 1240.99 79.5949 1240.27 80.541C1239.56 81.4785 1238.58 82.2114 1237.32 82.7398C1236.06 83.2682 1234.61 83.5324 1232.97 83.5324C1230.57 83.5324 1228.63 83.0296 1227.17 82.0239C1225.7 81.0097 1224.83 79.5992 1224.55 77.7924L1229.06 77.3577C1229.26 78.2441 1229.7 78.9131 1230.36 79.3648C1231.03 79.8165 1231.89 80.0424 1232.96 80.0424C1234.06 80.0424 1234.94 79.8165 1235.61 79.3648C1236.28 78.9131 1236.62 78.3549 1236.62 77.6901C1236.62 77.1276 1236.4 76.6631 1235.96 76.2967C1235.54 75.9302 1234.87 75.6489 1233.97 75.4529L1230.62 74.7498C1228.74 74.3577 1227.34 73.6972 1226.44 72.7682C1225.54 71.8307 1225.09 70.6461 1225.1 69.2143C1225.09 68.004 1225.42 66.9557 1226.08 66.0694C1226.75 65.1745 1227.69 64.4842 1228.88 63.9984C1230.08 63.504 1231.47 63.2569 1233.04 63.2569C1235.34 63.2569 1237.15 63.7469 1238.47 64.7271C1239.8 65.7072 1240.62 67.0324 1240.94 68.7029ZM156.175 143.149V123.513H160.662V126.785H160.866C161.224 125.652 161.838 124.778 162.707 124.165C163.585 123.542 164.587 123.231 165.712 123.231C165.967 123.231 166.253 123.244 166.568 123.27C166.892 123.287 167.161 123.317 167.374 123.359V127.616C167.178 127.548 166.866 127.488 166.44 127.437C166.023 127.378 165.618 127.348 165.226 127.348C164.382 127.348 163.624 127.531 162.95 127.898C162.286 128.255 161.761 128.754 161.378 129.393C160.994 130.032 160.803 130.77 160.803 131.605V143.149H156.175ZM178.333 143.532C176.364 143.532 174.664 143.123 173.232 142.305C171.809 141.478 170.713 140.311 169.946 138.802C169.179 137.285 168.796 135.5 168.796 133.446C168.796 131.426 169.179 129.653 169.946 128.128C170.722 126.594 171.804 125.4 173.194 124.548C174.583 123.687 176.215 123.257 178.09 123.257C179.3 123.257 180.442 123.453 181.516 123.845C182.598 124.228 183.553 124.825 184.38 125.635C185.215 126.444 185.871 127.476 186.348 128.728C186.826 129.973 187.064 131.456 187.064 133.177V134.596H170.969V131.477H182.628C182.62 130.591 182.428 129.802 182.053 129.112C181.678 128.413 181.154 127.863 180.48 127.463C179.816 127.062 179.04 126.862 178.154 126.862C177.208 126.862 176.377 127.092 175.661 127.552C174.945 128.004 174.387 128.601 173.986 129.342C173.594 130.075 173.394 130.88 173.385 131.758V134.481C173.385 135.623 173.594 136.603 174.012 137.422C174.429 138.231 175.013 138.853 175.763 139.288C176.513 139.714 177.391 139.927 178.397 139.927C179.07 139.927 179.679 139.834 180.225 139.646C180.77 139.45 181.243 139.165 181.644 138.79C182.044 138.415 182.347 137.95 182.551 137.396L186.873 137.882C186.6 139.024 186.08 140.021 185.313 140.873C184.554 141.717 183.583 142.373 182.398 142.842C181.213 143.302 179.858 143.532 178.333 143.532ZM190.979 150.513V123.513H195.531V126.76H195.799C196.038 126.282 196.374 125.775 196.809 125.238C197.244 124.693 197.832 124.228 198.573 123.845C199.315 123.453 200.261 123.257 201.411 123.257C202.928 123.257 204.296 123.645 205.515 124.42C206.742 125.187 207.714 126.325 208.43 127.834C209.154 129.334 209.516 131.174 209.516 133.356C209.516 135.513 209.163 137.345 208.455 138.853C207.748 140.362 206.785 141.513 205.566 142.305C204.347 143.098 202.967 143.494 201.424 143.494C200.299 143.494 199.366 143.307 198.624 142.932C197.883 142.557 197.286 142.105 196.835 141.576C196.391 141.04 196.046 140.532 195.799 140.055H195.607V150.513H190.979ZM195.518 133.331C195.518 134.601 195.697 135.713 196.055 136.667C196.421 137.622 196.945 138.368 197.627 138.905C198.317 139.433 199.153 139.697 200.133 139.697C201.156 139.697 202.012 139.424 202.702 138.879C203.393 138.325 203.913 137.571 204.262 136.616C204.62 135.653 204.799 134.558 204.799 133.331C204.799 132.112 204.624 131.03 204.275 130.084C203.925 129.138 203.406 128.396 202.715 127.859C202.025 127.322 201.164 127.054 200.133 127.054C199.144 127.054 198.305 127.314 197.614 127.834C196.924 128.353 196.4 129.082 196.042 130.02C195.692 130.957 195.518 132.061 195.518 133.331ZM222.045 143.532C220.127 143.532 218.465 143.111 217.059 142.267C215.653 141.423 214.562 140.243 213.786 138.726C213.019 137.209 212.636 135.436 212.636 133.407C212.636 131.379 213.019 129.602 213.786 128.076C214.562 126.551 215.653 125.366 217.059 124.523C218.465 123.679 220.127 123.257 222.045 123.257C223.962 123.257 225.624 123.679 227.031 124.523C228.437 125.366 229.523 126.551 230.29 128.076C231.066 129.602 231.454 131.379 231.454 133.407C231.454 135.436 231.066 137.209 230.29 138.726C229.523 140.243 228.437 141.423 227.031 142.267C225.624 143.111 223.962 143.532 222.045 143.532ZM222.07 139.825C223.11 139.825 223.979 139.54 224.678 138.969C225.377 138.389 225.897 137.613 226.238 136.642C226.587 135.67 226.762 134.588 226.762 133.395C226.762 132.193 226.587 131.106 226.238 130.135C225.897 129.155 225.377 128.375 224.678 127.795C223.979 127.216 223.11 126.926 222.07 126.926C221.005 126.926 220.119 127.216 219.411 127.795C218.712 128.375 218.188 129.155 217.839 130.135C217.498 131.106 217.327 132.193 217.327 133.395C217.327 134.588 217.498 135.67 217.839 136.642C218.188 137.613 218.712 138.389 219.411 138.969C220.119 139.54 221.005 139.825 222.07 139.825ZM235.382 143.149V123.513H239.869V126.785H240.074C240.431 125.652 241.045 124.778 241.914 124.165C242.792 123.542 243.794 123.231 244.919 123.231C245.174 123.231 245.46 123.244 245.775 123.27C246.099 123.287 246.368 123.317 246.581 123.359V127.616C246.385 127.548 246.074 127.488 245.647 127.437C245.23 127.378 244.825 127.348 244.433 127.348C243.589 127.348 242.831 127.531 242.157 127.898C241.493 128.255 240.968 128.754 240.585 129.393C240.201 130.032 240.01 130.77 240.01 131.605V143.149H235.382ZM260.515 123.513V127.092H249.227V123.513H260.515ZM252.014 118.808H256.642V137.243C256.642 137.865 256.735 138.342 256.923 138.674C257.119 138.998 257.375 139.22 257.69 139.339C258.005 139.459 258.355 139.518 258.738 139.518C259.028 139.518 259.292 139.497 259.531 139.454C259.778 139.412 259.966 139.373 260.093 139.339L260.873 142.957C260.626 143.042 260.272 143.136 259.812 143.238C259.36 143.341 258.806 143.4 258.15 143.417C256.991 143.451 255.947 143.277 255.018 142.893C254.089 142.501 253.352 141.896 252.806 141.078C252.27 140.26 252.005 139.237 252.014 138.01V118.808ZM272.868 143.532C270.899 143.532 269.199 143.123 267.767 142.305C266.344 141.478 265.249 140.311 264.482 138.802C263.714 137.285 263.331 135.5 263.331 133.446C263.331 131.426 263.714 129.653 264.482 128.128C265.257 126.594 266.339 125.4 267.729 124.548C269.118 123.687 270.75 123.257 272.625 123.257C273.835 123.257 274.977 123.453 276.051 123.845C277.134 124.228 278.088 124.825 278.915 125.635C279.75 126.444 280.406 127.476 280.884 128.728C281.361 129.973 281.599 131.456 281.599 133.177V134.596H265.504V131.477H277.163C277.155 130.591 276.963 129.802 276.588 129.112C276.213 128.413 275.689 127.863 275.016 127.463C274.351 127.062 273.575 126.862 272.689 126.862C271.743 126.862 270.912 127.092 270.196 127.552C269.48 128.004 268.922 128.601 268.521 129.342C268.129 130.075 267.929 130.88 267.92 131.758V134.481C267.92 135.623 268.129 136.603 268.547 137.422C268.964 138.231 269.548 138.853 270.298 139.288C271.048 139.714 271.926 139.927 272.932 139.927C273.605 139.927 274.214 139.834 274.76 139.646C275.305 139.45 275.778 139.165 276.179 138.79C276.58 138.415 276.882 137.95 277.087 137.396L281.408 137.882C281.135 139.024 280.615 140.021 279.848 140.873C279.089 141.717 278.118 142.373 276.933 142.842C275.749 143.302 274.393 143.532 272.868 143.532ZM292.801 143.494C291.259 143.494 289.878 143.098 288.659 142.305C287.441 141.513 286.478 140.362 285.77 138.853C285.063 137.345 284.709 135.513 284.709 133.356C284.709 131.174 285.067 129.334 285.783 127.834C286.507 126.325 287.483 125.187 288.711 124.42C289.938 123.645 291.306 123.257 292.814 123.257C293.965 123.257 294.911 123.453 295.652 123.845C296.394 124.228 296.982 124.693 297.417 125.238C297.851 125.775 298.188 126.282 298.426 126.76H298.618V116.967H303.259V143.149H298.708V140.055H298.426C298.188 140.532 297.843 141.04 297.391 141.576C296.939 142.105 296.343 142.557 295.601 142.932C294.86 143.307 293.926 143.494 292.801 143.494ZM294.093 139.697C295.073 139.697 295.908 139.433 296.598 138.905C297.289 138.368 297.813 137.622 298.171 136.667C298.529 135.713 298.708 134.601 298.708 133.331C298.708 132.061 298.529 130.957 298.171 130.02C297.821 129.082 297.301 128.353 296.611 127.834C295.929 127.314 295.09 127.054 294.093 127.054C293.061 127.054 292.201 127.322 291.51 127.859C290.82 128.396 290.3 129.138 289.951 130.084C289.601 131.03 289.426 132.112 289.426 133.331C289.426 134.558 289.601 135.653 289.951 136.616C290.309 137.571 290.833 138.325 291.523 138.879C292.222 139.424 293.078 139.697 294.093 139.697ZM325.813 143.532C323.844 143.532 322.144 143.123 320.712 142.305C319.289 141.478 318.194 140.311 317.427 138.802C316.66 137.285 316.276 135.5 316.276 133.446C316.276 131.426 316.66 129.653 317.427 128.128C318.202 126.594 319.285 125.4 320.674 124.548C322.063 123.687 323.695 123.257 325.57 123.257C326.781 123.257 327.923 123.453 328.996 123.845C330.079 124.228 331.033 124.825 331.86 125.635C332.695 126.444 333.352 127.476 333.829 128.728C334.306 129.973 334.545 131.456 334.545 133.177V134.596H318.45V131.477H330.109C330.1 130.591 329.908 129.802 329.533 129.112C329.158 128.413 328.634 127.863 327.961 127.463C327.296 127.062 326.521 126.862 325.634 126.862C324.688 126.862 323.857 127.092 323.141 127.552C322.425 128.004 321.867 128.601 321.467 129.342C321.075 130.075 320.874 130.88 320.866 131.758V134.481C320.866 135.623 321.075 136.603 321.492 137.422C321.91 138.231 322.494 138.853 323.244 139.288C323.994 139.714 324.871 139.927 325.877 139.927C326.55 139.927 327.16 139.834 327.705 139.646C328.251 139.45 328.724 139.165 329.124 138.79C329.525 138.415 329.827 137.95 330.032 137.396L334.353 137.882C334.08 139.024 333.56 140.021 332.793 140.873C332.035 141.717 331.063 142.373 329.879 142.842C328.694 143.302 327.339 143.532 325.813 143.532ZM343.088 131.643V143.149H338.46V123.513H342.883V126.849H343.113C343.565 125.75 344.285 124.876 345.274 124.228C346.271 123.581 347.502 123.257 348.968 123.257C350.324 123.257 351.504 123.547 352.51 124.126C353.524 124.706 354.308 125.545 354.862 126.645C355.424 127.744 355.701 129.078 355.693 130.646V143.149H351.065V131.362C351.065 130.049 350.724 129.023 350.042 128.281C349.369 127.54 348.436 127.169 347.243 127.169C346.433 127.169 345.713 127.348 345.082 127.706C344.46 128.055 343.97 128.562 343.612 129.227C343.262 129.892 343.088 130.697 343.088 131.643ZM368.937 150.922C367.275 150.922 365.848 150.696 364.654 150.244C363.461 149.801 362.502 149.204 361.778 148.454C361.054 147.704 360.551 146.873 360.27 145.961L364.437 144.951C364.625 145.335 364.897 145.714 365.255 146.089C365.613 146.473 366.095 146.788 366.7 147.035C367.314 147.291 368.085 147.419 369.014 147.419C370.326 147.419 371.413 147.099 372.274 146.46C373.135 145.829 373.565 144.79 373.565 143.341V139.621H373.335C373.096 140.098 372.747 140.588 372.287 141.091C371.835 141.594 371.234 142.015 370.484 142.356C369.743 142.697 368.809 142.868 367.684 142.868C366.176 142.868 364.808 142.514 363.581 141.807C362.362 141.091 361.39 140.025 360.666 138.611C359.95 137.187 359.592 135.406 359.592 133.267C359.592 131.111 359.95 129.291 360.666 127.808C361.39 126.317 362.366 125.187 363.593 124.42C364.821 123.645 366.189 123.257 367.697 123.257C368.848 123.257 369.794 123.453 370.535 123.845C371.285 124.228 371.882 124.693 372.325 125.238C372.768 125.775 373.105 126.282 373.335 126.76H373.591V123.513H378.154V143.469C378.154 145.148 377.754 146.537 376.953 147.636C376.152 148.736 375.056 149.558 373.667 150.103C372.278 150.649 370.701 150.922 368.937 150.922ZM368.975 139.237C369.956 139.237 370.791 138.998 371.481 138.521C372.172 138.044 372.696 137.358 373.054 136.463C373.412 135.568 373.591 134.494 373.591 133.241C373.591 132.005 373.412 130.923 373.054 129.994C372.704 129.065 372.184 128.345 371.494 127.834C370.812 127.314 369.973 127.054 368.975 127.054C367.944 127.054 367.083 127.322 366.393 127.859C365.703 128.396 365.183 129.133 364.833 130.071C364.484 131 364.309 132.057 364.309 133.241C364.309 134.443 364.484 135.496 364.833 136.399C365.191 137.294 365.716 137.993 366.406 138.496C367.105 138.99 367.961 139.237 368.975 139.237ZM388.548 143.545C387.304 143.545 386.183 143.324 385.186 142.88C384.197 142.429 383.413 141.764 382.833 140.886C382.262 140.008 381.977 138.926 381.977 137.639C381.977 136.531 382.181 135.615 382.591 134.89C383 134.166 383.558 133.586 384.265 133.152C384.973 132.717 385.77 132.389 386.656 132.167C387.551 131.937 388.475 131.771 389.43 131.669C390.581 131.549 391.514 131.443 392.23 131.349C392.946 131.247 393.466 131.094 393.789 130.889C394.122 130.676 394.288 130.348 394.288 129.905V129.828C394.288 128.865 394.002 128.119 393.431 127.591C392.86 127.062 392.038 126.798 390.964 126.798C389.831 126.798 388.931 127.045 388.267 127.54C387.61 128.034 387.167 128.618 386.937 129.291L382.616 128.677C382.957 127.484 383.52 126.487 384.304 125.686C385.088 124.876 386.047 124.271 387.18 123.871C388.314 123.461 389.566 123.257 390.939 123.257C391.885 123.257 392.826 123.368 393.764 123.589C394.701 123.811 395.558 124.177 396.333 124.689C397.109 125.192 397.731 125.878 398.2 126.747C398.677 127.616 398.916 128.703 398.916 130.007V143.149H394.467V140.451H394.314C394.032 140.997 393.636 141.508 393.125 141.986C392.622 142.454 391.987 142.834 391.22 143.123C390.461 143.405 389.571 143.545 388.548 143.545ZM389.75 140.145C390.679 140.145 391.484 139.961 392.166 139.595C392.848 139.22 393.372 138.726 393.738 138.112C394.113 137.498 394.301 136.829 394.301 136.105V133.791C394.156 133.91 393.909 134.021 393.559 134.123C393.218 134.226 392.835 134.315 392.409 134.392C391.983 134.469 391.561 134.537 391.143 134.596C390.725 134.656 390.363 134.707 390.056 134.75C389.366 134.844 388.748 134.997 388.203 135.21C387.657 135.423 387.227 135.721 386.912 136.105C386.596 136.48 386.439 136.966 386.439 137.562C386.439 138.415 386.75 139.058 387.372 139.493C387.994 139.927 388.787 140.145 389.75 140.145ZM412.109 150.922C410.447 150.922 409.02 150.696 407.826 150.244C406.633 149.801 405.674 149.204 404.95 148.454C404.225 147.704 403.723 146.873 403.441 145.961L407.609 144.951C407.797 145.335 408.069 145.714 408.427 146.089C408.785 146.473 409.267 146.788 409.872 147.035C410.485 147.291 411.257 147.419 412.186 147.419C413.498 147.419 414.585 147.099 415.446 146.46C416.306 145.829 416.737 144.79 416.737 143.341V139.621H416.507C416.268 140.098 415.919 140.588 415.458 141.091C415.007 141.594 414.406 142.015 413.656 142.356C412.914 142.697 411.981 142.868 410.856 142.868C409.348 142.868 407.98 142.514 406.752 141.807C405.534 141.091 404.562 140.025 403.838 138.611C403.122 137.187 402.764 135.406 402.764 133.267C402.764 131.111 403.122 129.291 403.838 127.808C404.562 126.317 405.538 125.187 406.765 124.42C407.993 123.645 409.36 123.257 410.869 123.257C412.02 123.257 412.966 123.453 413.707 123.845C414.457 124.228 415.054 124.693 415.497 125.238C415.94 125.775 416.277 126.282 416.507 126.76H416.762V123.513H421.326V143.469C421.326 145.148 420.926 146.537 420.125 147.636C419.324 148.736 418.228 149.558 416.839 150.103C415.45 150.649 413.873 150.922 412.109 150.922ZM412.147 139.237C413.127 139.237 413.963 138.998 414.653 138.521C415.343 138.044 415.868 137.358 416.225 136.463C416.583 135.568 416.762 134.494 416.762 133.241C416.762 132.005 416.583 130.923 416.225 129.994C415.876 129.065 415.356 128.345 414.666 127.834C413.984 127.314 413.145 127.054 412.147 127.054C411.116 127.054 410.255 127.322 409.565 127.859C408.875 128.396 408.355 129.133 408.005 130.071C407.656 131 407.481 132.057 407.481 133.241C407.481 134.443 407.656 135.496 408.005 136.399C408.363 137.294 408.887 137.993 409.578 138.496C410.277 138.99 411.133 139.237 412.147 139.237ZM426.069 143.149V123.513H430.697V143.149H426.069ZM428.396 120.726C427.663 120.726 427.032 120.483 426.504 119.997C425.975 119.503 425.711 118.91 425.711 118.22C425.711 117.521 425.975 116.929 426.504 116.443C427.032 115.949 427.663 115.701 428.396 115.701C429.137 115.701 429.768 115.949 430.288 116.443C430.816 116.929 431.081 117.521 431.081 118.22C431.081 118.91 430.816 119.503 430.288 119.997C429.768 120.483 429.137 120.726 428.396 120.726ZM440.084 131.643V143.149H435.456V123.513H439.879V126.849H440.109C440.561 125.75 441.281 124.876 442.27 124.228C443.267 123.581 444.499 123.257 445.964 123.257C447.32 123.257 448.5 123.547 449.506 124.126C450.52 124.706 451.304 125.545 451.858 126.645C452.42 127.744 452.697 129.078 452.689 130.646V143.149H448.061V131.362C448.061 130.049 447.72 129.023 447.038 128.281C446.365 127.54 445.432 127.169 444.239 127.169C443.429 127.169 442.709 127.348 442.078 127.706C441.456 128.055 440.966 128.562 440.608 129.227C440.259 129.892 440.084 130.697 440.084 131.643ZM465.933 150.922C464.271 150.922 462.844 150.696 461.651 150.244C460.457 149.801 459.499 149.204 458.774 148.454C458.05 147.704 457.547 146.873 457.266 145.961L461.433 144.951C461.621 145.335 461.893 145.714 462.251 146.089C462.609 146.473 463.091 146.788 463.696 147.035C464.31 147.291 465.081 147.419 466.01 147.419C467.322 147.419 468.409 147.099 469.27 146.46C470.131 145.829 470.561 144.79 470.561 143.341V139.621H470.331C470.092 140.098 469.743 140.588 469.283 141.091C468.831 141.594 468.23 142.015 467.48 142.356C466.739 142.697 465.805 142.868 464.68 142.868C463.172 142.868 461.804 142.514 460.577 141.807C459.358 141.091 458.386 140.025 457.662 138.611C456.946 137.187 456.588 135.406 456.588 133.267C456.588 131.111 456.946 129.291 457.662 127.808C458.386 126.317 459.362 125.187 460.589 124.42C461.817 123.645 463.185 123.257 464.693 123.257C465.844 123.257 466.79 123.453 467.531 123.845C468.281 124.228 468.878 124.693 469.321 125.238C469.764 125.775 470.101 126.282 470.331 126.76H470.587V123.513H475.151V143.469C475.151 145.148 474.75 146.537 473.949 147.636C473.148 148.736 472.053 149.558 470.663 150.103C469.274 150.649 467.697 150.922 465.933 150.922ZM465.972 139.237C466.952 139.237 467.787 138.998 468.477 138.521C469.168 138.044 469.692 137.358 470.05 136.463C470.408 135.568 470.587 134.494 470.587 133.241C470.587 132.005 470.408 130.923 470.05 129.994C469.7 129.065 469.18 128.345 468.49 127.834C467.808 127.314 466.969 127.054 465.972 127.054C464.94 127.054 464.08 127.322 463.389 127.859C462.699 128.396 462.179 129.133 461.83 130.071C461.48 131 461.305 132.057 461.305 133.241C461.305 134.443 461.48 135.496 461.83 136.399C462.188 137.294 462.712 137.993 463.402 138.496C464.101 138.99 464.957 139.237 465.972 139.237ZM488.823 143.149V123.513H493.451V143.149H488.823ZM491.15 120.726C490.417 120.726 489.786 120.483 489.258 119.997C488.729 119.503 488.465 118.91 488.465 118.22C488.465 117.521 488.729 116.929 489.258 116.443C489.786 115.949 490.417 115.701 491.15 115.701C491.891 115.701 492.522 115.949 493.042 116.443C493.57 116.929 493.835 117.521 493.835 118.22C493.835 118.91 493.57 119.503 493.042 119.997C492.522 120.483 491.891 120.726 491.15 120.726ZM502.838 131.643V143.149H498.21V123.513H502.633V126.849H502.863C503.315 125.75 504.035 124.876 505.024 124.228C506.021 123.581 507.252 123.257 508.718 123.257C510.074 123.257 511.254 123.547 512.26 124.126C513.274 124.706 514.058 125.545 514.612 126.645C515.174 127.744 515.451 129.078 515.443 130.646V143.149H510.815V131.362C510.815 130.049 510.474 129.023 509.792 128.281C509.119 127.54 508.186 127.169 506.993 127.169C506.183 127.169 505.463 127.348 504.832 127.706C504.21 128.055 503.72 128.562 503.362 129.227C503.012 129.892 502.838 130.697 502.838 131.643ZM529.282 143.149V116.967H533.909V126.76H534.101C534.34 126.282 534.676 125.775 535.111 125.238C535.546 124.693 536.134 124.228 536.875 123.845C537.617 123.453 538.563 123.257 539.713 123.257C541.23 123.257 542.598 123.645 543.817 124.42C545.044 125.187 546.016 126.325 546.732 127.834C547.456 129.334 547.819 131.174 547.819 133.356C547.819 135.513 547.465 137.345 546.757 138.853C546.05 140.362 545.087 141.513 543.868 142.305C542.65 143.098 541.269 143.494 539.726 143.494C538.601 143.494 537.668 143.307 536.926 142.932C536.185 142.557 535.588 142.105 535.137 141.576C534.694 141.04 534.348 140.532 534.101 140.055H533.833V143.149H529.282ZM533.82 133.331C533.82 134.601 533.999 135.713 534.357 136.667C534.723 137.622 535.248 138.368 535.929 138.905C536.62 139.433 537.455 139.697 538.435 139.697C539.458 139.697 540.314 139.424 541.005 138.879C541.695 138.325 542.215 137.571 542.564 136.616C542.922 135.653 543.101 134.558 543.101 133.331C543.101 132.112 542.926 131.03 542.577 130.084C542.228 129.138 541.708 128.396 541.017 127.859C540.327 127.322 539.466 127.054 538.435 127.054C537.446 127.054 536.607 127.314 535.917 127.834C535.226 128.353 534.702 129.082 534.344 130.02C533.995 130.957 533.82 132.061 533.82 133.331ZM564.268 134.89V123.513H568.896V143.149H564.409V139.659H564.205C563.761 140.758 563.033 141.657 562.018 142.356C561.013 143.055 559.773 143.405 558.298 143.405C557.011 143.405 555.874 143.119 554.885 142.548C553.905 141.969 553.138 141.129 552.584 140.03C552.03 138.922 551.753 137.584 551.753 136.015V123.513H556.381V135.299C556.381 136.544 556.722 137.532 557.403 138.265C558.085 138.998 558.98 139.365 560.088 139.365C560.77 139.365 561.43 139.199 562.07 138.866C562.709 138.534 563.233 138.04 563.642 137.383C564.06 136.719 564.268 135.888 564.268 134.89ZM578.283 116.967V143.149H573.655V116.967H578.283ZM587.67 116.967V143.149H583.042V116.967H587.67ZM595.305 150.513C594.674 150.513 594.091 150.461 593.554 150.359C593.025 150.265 592.603 150.155 592.288 150.027L593.362 146.422C594.035 146.618 594.636 146.711 595.164 146.703C595.693 146.694 596.157 146.528 596.558 146.204C596.967 145.889 597.312 145.361 597.593 144.619L597.99 143.558L590.869 123.513H595.778L600.304 138.342H600.508L605.047 123.513H609.968L602.106 145.527C601.74 146.567 601.254 147.457 600.649 148.199C600.044 148.949 599.302 149.52 598.424 149.912C597.555 150.312 596.515 150.513 595.305 150.513ZM613.171 143.149V123.513H617.799V143.149H613.171ZM615.498 120.726C614.765 120.726 614.134 120.483 613.605 119.997C613.077 119.503 612.813 118.91 612.813 118.22C612.813 117.521 613.077 116.929 613.605 116.443C614.134 115.949 614.765 115.701 615.498 115.701C616.239 115.701 616.87 115.949 617.39 116.443C617.918 116.929 618.182 117.521 618.182 118.22C618.182 118.91 617.918 119.503 617.39 119.997C616.87 120.483 616.239 120.726 615.498 120.726ZM627.185 131.643V143.149H622.558V123.513H626.981V126.849H627.211C627.663 125.75 628.383 124.876 629.371 124.228C630.369 123.581 631.6 123.257 633.066 123.257C634.421 123.257 635.602 123.547 636.607 124.126C637.621 124.706 638.406 125.545 638.96 126.645C639.522 127.744 639.799 129.078 639.79 130.646V143.149H635.163V131.362C635.163 130.049 634.822 129.023 634.14 128.281C633.467 127.54 632.533 127.169 631.34 127.169C630.531 127.169 629.81 127.348 629.18 127.706C628.558 128.055 628.067 128.562 627.71 129.227C627.36 129.892 627.185 130.697 627.185 131.643ZM653.035 150.922C651.373 150.922 649.945 150.696 648.752 150.244C647.559 149.801 646.6 149.204 645.876 148.454C645.151 147.704 644.648 146.873 644.367 145.961L648.535 144.951C648.722 145.335 648.995 145.714 649.353 146.089C649.711 146.473 650.192 146.788 650.798 147.035C651.411 147.291 652.183 147.419 653.112 147.419C654.424 147.419 655.511 147.099 656.371 146.46C657.232 145.829 657.663 144.79 657.663 143.341V139.621H657.433C657.194 140.098 656.844 140.588 656.384 141.091C655.933 141.594 655.332 142.015 654.582 142.356C653.84 142.697 652.907 142.868 651.782 142.868C650.273 142.868 648.906 142.514 647.678 141.807C646.46 141.091 645.488 140.025 644.763 138.611C644.048 137.187 643.69 135.406 643.69 133.267C643.69 131.111 644.048 129.291 644.763 127.808C645.488 126.317 646.464 125.187 647.691 124.42C648.918 123.645 650.286 123.257 651.795 123.257C652.945 123.257 653.891 123.453 654.633 123.845C655.383 124.228 655.979 124.693 656.423 125.238C656.866 125.775 657.202 126.282 657.433 126.76H657.688V123.513H662.252V143.469C662.252 145.148 661.852 146.537 661.05 147.636C660.249 148.736 659.154 149.558 657.765 150.103C656.376 150.649 654.799 150.922 653.035 150.922ZM653.073 139.237C654.053 139.237 654.888 138.998 655.579 138.521C656.269 138.044 656.793 137.358 657.151 136.463C657.509 135.568 657.688 134.494 657.688 133.241C657.688 132.005 657.509 130.923 657.151 129.994C656.802 129.065 656.282 128.345 655.592 127.834C654.91 127.314 654.07 127.054 653.073 127.054C652.042 127.054 651.181 127.322 650.491 127.859C649.8 128.396 649.281 129.133 648.931 130.071C648.582 131 648.407 132.057 648.407 133.241C648.407 134.443 648.582 135.496 648.931 136.399C649.289 137.294 649.813 137.993 650.504 138.496C651.202 138.99 652.059 139.237 653.073 139.237ZM676.129 143.149V116.967H680.757V126.76H680.949C681.188 126.282 681.524 125.775 681.959 125.238C682.393 124.693 682.982 124.228 683.723 123.845C684.464 123.453 685.411 123.257 686.561 123.257C688.078 123.257 689.446 123.645 690.665 124.42C691.892 125.187 692.864 126.325 693.58 127.834C694.304 129.334 694.666 131.174 694.666 133.356C694.666 135.513 694.313 137.345 693.605 138.853C692.898 140.362 691.935 141.513 690.716 142.305C689.497 143.098 688.116 143.494 686.574 143.494C685.449 143.494 684.516 143.307 683.774 142.932C683.033 142.557 682.436 142.105 681.984 141.576C681.541 141.04 681.196 140.532 680.949 140.055H680.68V143.149H676.129ZM680.668 133.331C680.668 134.601 680.847 135.713 681.205 136.667C681.571 137.622 682.095 138.368 682.777 138.905C683.467 139.433 684.303 139.697 685.283 139.697C686.305 139.697 687.162 139.424 687.852 138.879C688.543 138.325 689.063 137.571 689.412 136.616C689.77 135.653 689.949 134.558 689.949 133.331C689.949 132.112 689.774 131.03 689.425 130.084C689.075 129.138 688.555 128.396 687.865 127.859C687.175 127.322 686.314 127.054 685.283 127.054C684.294 127.054 683.455 127.314 682.764 127.834C682.074 128.353 681.55 129.082 681.192 130.02C680.842 130.957 680.668 132.061 680.668 133.331ZM707.294 143.532C705.325 143.532 703.625 143.123 702.193 142.305C700.77 141.478 699.674 140.311 698.907 138.802C698.14 137.285 697.757 135.5 697.757 133.446C697.757 131.426 698.14 129.653 698.907 128.128C699.683 126.594 700.765 125.4 702.154 124.548C703.544 123.687 705.176 123.257 707.051 123.257C708.261 123.257 709.403 123.453 710.477 123.845C711.559 124.228 712.514 124.825 713.341 125.635C714.176 126.444 714.832 127.476 715.309 128.728C715.787 129.973 716.025 131.456 716.025 133.177V134.596H699.93V131.477H711.589C711.581 130.591 711.389 129.802 711.014 129.112C710.639 128.413 710.115 127.863 709.441 127.463C708.777 127.062 708.001 126.862 707.115 126.862C706.169 126.862 705.338 127.092 704.622 127.552C703.906 128.004 703.348 128.601 702.947 129.342C702.555 130.075 702.355 130.88 702.346 131.758V134.481C702.346 135.623 702.555 136.603 702.973 137.422C703.39 138.231 703.974 138.853 704.724 139.288C705.474 139.714 706.352 139.927 707.358 139.927C708.031 139.927 708.64 139.834 709.186 139.646C709.731 139.45 710.204 139.165 710.605 138.79C711.005 138.415 711.308 137.95 711.512 137.396L715.833 137.882C715.561 139.024 715.041 140.021 714.274 140.873C713.515 141.717 712.544 142.373 711.359 142.842C710.174 143.302 708.819 143.532 707.294 143.532ZM724.568 131.643V143.149H719.94V116.967H724.466V126.849H724.696C725.156 125.741 725.868 124.868 726.831 124.228C727.803 123.581 729.038 123.257 730.538 123.257C731.902 123.257 733.091 123.542 734.105 124.113C735.119 124.684 735.903 125.52 736.457 126.619C737.02 127.719 737.301 129.061 737.301 130.646V143.149H732.673V131.362C732.673 130.041 732.332 129.014 731.651 128.281C730.977 127.54 730.031 127.169 728.812 127.169C727.994 127.169 727.261 127.348 726.614 127.706C725.974 128.055 725.472 128.562 725.105 129.227C724.747 129.892 724.568 130.697 724.568 131.643ZM747.669 143.545C746.425 143.545 745.304 143.324 744.307 142.88C743.318 142.429 742.534 141.764 741.955 140.886C741.384 140.008 741.098 138.926 741.098 137.639C741.098 136.531 741.303 135.615 741.712 134.89C742.121 134.166 742.679 133.586 743.386 133.152C744.094 132.717 744.891 132.389 745.777 132.167C746.672 131.937 747.597 131.771 748.551 131.669C749.702 131.549 750.635 131.443 751.351 131.349C752.067 131.247 752.587 131.094 752.911 130.889C753.243 130.676 753.409 130.348 753.409 129.905V129.828C753.409 128.865 753.124 128.119 752.553 127.591C751.982 127.062 751.159 126.798 750.085 126.798C748.952 126.798 748.053 127.045 747.388 127.54C746.732 128.034 746.288 128.618 746.058 129.291L741.737 128.677C742.078 127.484 742.641 126.487 743.425 125.686C744.209 124.876 745.168 124.271 746.301 123.871C747.435 123.461 748.688 123.257 750.06 123.257C751.006 123.257 751.947 123.368 752.885 123.589C753.822 123.811 754.679 124.177 755.455 124.689C756.23 125.192 756.852 125.878 757.321 126.747C757.798 127.616 758.037 128.703 758.037 130.007V143.149H753.588V140.451H753.435C753.153 140.997 752.757 141.508 752.246 141.986C751.743 142.454 751.108 142.834 750.341 143.123C749.582 143.405 748.692 143.545 747.669 143.545ZM748.871 140.145C749.8 140.145 750.605 139.961 751.287 139.595C751.969 139.22 752.493 138.726 752.859 138.112C753.234 137.498 753.422 136.829 753.422 136.105V133.791C753.277 133.91 753.03 134.021 752.68 134.123C752.339 134.226 751.956 134.315 751.53 134.392C751.104 134.469 750.682 134.537 750.264 134.596C749.847 134.656 749.484 134.707 749.178 134.75C748.487 134.844 747.869 134.997 747.324 135.21C746.778 135.423 746.348 135.721 746.033 136.105C745.717 136.48 745.56 136.966 745.56 137.562C745.56 138.415 745.871 139.058 746.493 139.493C747.115 139.927 747.908 140.145 748.871 140.145ZM779.527 123.513L772.534 143.149H767.42L760.428 123.513H765.362L769.875 138.099H770.08L774.605 123.513H779.527ZM782.729 143.149V123.513H787.357V143.149H782.729ZM785.056 120.726C784.323 120.726 783.692 120.483 783.164 119.997C782.636 119.503 782.371 118.91 782.371 118.22C782.371 117.521 782.636 116.929 783.164 116.443C783.692 115.949 784.323 115.701 785.056 115.701C785.798 115.701 786.428 115.949 786.948 116.443C787.477 116.929 787.741 117.521 787.741 118.22C787.741 118.91 787.477 119.503 786.948 119.997C786.428 120.483 785.798 120.726 785.056 120.726ZM800.681 143.532C798.764 143.532 797.102 143.111 795.696 142.267C794.289 141.423 793.199 140.243 792.423 138.726C791.656 137.209 791.272 135.436 791.272 133.407C791.272 131.379 791.656 129.602 792.423 128.076C793.199 126.551 794.289 125.366 795.696 124.523C797.102 123.679 798.764 123.257 800.681 123.257C802.599 123.257 804.261 123.679 805.667 124.523C807.074 125.366 808.16 126.551 808.927 128.076C809.703 129.602 810.091 131.379 810.091 133.407C810.091 135.436 809.703 137.209 808.927 138.726C808.16 140.243 807.074 141.423 805.667 142.267C804.261 143.111 802.599 143.532 800.681 143.532ZM800.707 139.825C801.747 139.825 802.616 139.54 803.315 138.969C804.014 138.389 804.534 137.613 804.875 136.642C805.224 135.67 805.399 134.588 805.399 133.395C805.399 132.193 805.224 131.106 804.875 130.135C804.534 129.155 804.014 128.375 803.315 127.795C802.616 127.216 801.747 126.926 800.707 126.926C799.642 126.926 798.755 127.216 798.048 127.795C797.349 128.375 796.825 129.155 796.475 130.135C796.135 131.106 795.964 132.193 795.964 133.395C795.964 134.588 796.135 135.67 796.475 136.642C796.825 137.613 797.349 138.389 798.048 138.969C798.755 139.54 799.642 139.825 800.707 139.825ZM826.534 134.89V123.513H831.162V143.149H826.675V139.659H826.47C826.027 140.758 825.298 141.657 824.284 142.356C823.278 143.055 822.038 143.405 820.564 143.405C819.277 143.405 818.139 143.119 817.151 142.548C816.17 141.969 815.403 141.129 814.849 140.03C814.295 138.922 814.018 137.584 814.018 136.015V123.513H818.646V135.299C818.646 136.544 818.987 137.532 819.669 138.265C820.351 138.998 821.246 139.365 822.354 139.365C823.036 139.365 823.696 139.199 824.335 138.866C824.974 138.534 825.499 138.04 825.908 137.383C826.325 136.719 826.534 135.888 826.534 134.89ZM835.921 143.149V123.513H840.408V126.785H840.613C840.971 125.652 841.584 124.778 842.453 124.165C843.331 123.542 844.333 123.231 845.458 123.231C845.713 123.231 845.999 123.244 846.314 123.27C846.638 123.287 846.907 123.317 847.12 123.359V127.616C846.924 127.548 846.613 127.488 846.186 127.437C845.769 127.378 845.364 127.348 844.972 127.348C844.128 127.348 843.37 127.531 842.696 127.898C842.032 128.255 841.507 128.754 841.124 129.393C840.74 130.032 840.549 130.77 840.549 131.605V143.149H835.921ZM868.929 123.513V127.092H857.641V123.513H868.929ZM860.428 118.808H865.056V137.243C865.056 137.865 865.15 138.342 865.337 138.674C865.533 138.998 865.789 139.22 866.104 139.339C866.419 139.459 866.769 139.518 867.152 139.518C867.442 139.518 867.706 139.497 867.945 139.454C868.192 139.412 868.38 139.373 868.507 139.339L869.287 142.957C869.04 143.042 868.686 143.136 868.226 143.238C867.775 143.341 867.221 143.4 866.564 143.417C865.405 143.451 864.361 143.277 863.432 142.893C862.503 142.501 861.766 141.896 861.221 141.078C860.684 140.26 860.419 139.237 860.428 138.01V118.808ZM881.154 143.532C879.237 143.532 877.575 143.111 876.168 142.267C874.762 141.423 873.671 140.243 872.896 138.726C872.129 137.209 871.745 135.436 871.745 133.407C871.745 131.379 872.129 129.602 872.896 128.076C873.671 126.551 874.762 125.366 876.168 124.523C877.575 123.679 879.237 123.257 881.154 123.257C883.072 123.257 884.734 123.679 886.14 124.523C887.546 125.366 888.633 126.551 889.4 128.076C890.175 129.602 890.563 131.379 890.563 133.407C890.563 135.436 890.175 137.209 889.4 138.726C888.633 140.243 887.546 141.423 886.14 142.267C884.734 143.111 883.072 143.532 881.154 143.532ZM881.18 139.825C882.219 139.825 883.089 139.54 883.788 138.969C884.487 138.389 885.006 137.613 885.347 136.642C885.697 135.67 885.871 134.588 885.871 133.395C885.871 132.193 885.697 131.106 885.347 130.135C885.006 129.155 884.487 128.375 883.788 127.795C883.089 127.216 882.219 126.926 881.18 126.926C880.114 126.926 879.228 127.216 878.521 127.795C877.822 128.375 877.298 129.155 876.948 130.135C876.607 131.106 876.437 132.193 876.437 133.395C876.437 134.588 876.607 135.67 876.948 136.642C877.298 137.613 877.822 138.389 878.521 138.969C879.228 139.54 880.114 139.825 881.18 139.825ZM897.981 143.149L892.433 123.513H897.15L900.602 137.319H900.781L904.309 123.513H908.975L912.504 137.243H912.696L916.096 123.513H920.826L915.265 143.149H910.446L906.764 129.879H906.495L902.814 143.149H897.981ZM929.708 143.545C928.464 143.545 927.343 143.324 926.346 142.88C925.357 142.429 924.573 141.764 923.994 140.886C923.423 140.008 923.137 138.926 923.137 137.639C923.137 136.531 923.342 135.615 923.751 134.89C924.16 134.166 924.718 133.586 925.425 133.152C926.133 132.717 926.93 132.389 927.816 132.167C928.711 131.937 929.636 131.771 930.59 131.669C931.741 131.549 932.674 131.443 933.39 131.349C934.106 131.247 934.626 131.094 934.95 130.889C935.282 130.676 935.448 130.348 935.448 129.905V129.828C935.448 128.865 935.163 128.119 934.592 127.591C934.021 127.062 933.198 126.798 932.124 126.798C930.991 126.798 930.092 127.045 929.427 127.54C928.771 128.034 928.327 128.618 928.097 129.291L923.776 128.677C924.117 127.484 924.68 126.487 925.464 125.686C926.248 124.876 927.207 124.271 928.34 123.871C929.474 123.461 930.727 123.257 932.099 123.257C933.045 123.257 933.987 123.368 934.924 123.589C935.862 123.811 936.718 124.177 937.494 124.689C938.269 125.192 938.891 125.878 939.36 126.747C939.837 127.616 940.076 128.703 940.076 130.007V143.149H935.627V140.451H935.474C935.192 140.997 934.796 141.508 934.285 141.986C933.782 142.454 933.147 142.834 932.38 143.123C931.621 143.405 930.731 143.545 929.708 143.545ZM930.91 140.145C931.839 140.145 932.644 139.961 933.326 139.595C934.008 139.22 934.532 138.726 934.898 138.112C935.273 137.498 935.461 136.829 935.461 136.105V133.791C935.316 133.91 935.069 134.021 934.719 134.123C934.379 134.226 933.995 134.315 933.569 134.392C933.143 134.469 932.721 134.537 932.303 134.596C931.886 134.656 931.523 134.707 931.217 134.75C930.526 134.844 929.908 134.997 929.363 135.21C928.817 135.423 928.387 135.721 928.072 136.105C927.756 136.48 927.599 136.966 927.599 137.562C927.599 138.415 927.91 139.058 928.532 139.493C929.154 139.927 929.947 140.145 930.91 140.145ZM944.729 143.149V123.513H949.217V126.785H949.421C949.779 125.652 950.393 124.778 951.262 124.165C952.14 123.542 953.141 123.231 954.266 123.231C954.522 123.231 954.808 123.244 955.123 123.27C955.447 123.287 955.715 123.317 955.928 123.359V127.616C955.732 127.548 955.421 127.488 954.995 127.437C954.577 127.378 954.173 127.348 953.781 127.348C952.937 127.348 952.178 127.531 951.505 127.898C950.84 128.255 950.316 128.754 949.933 129.393C949.549 130.032 949.357 130.77 949.357 131.605V143.149H944.729ZM965.481 143.494C963.939 143.494 962.558 143.098 961.339 142.305C960.12 141.513 959.157 140.362 958.45 138.853C957.743 137.345 957.389 135.513 957.389 133.356C957.389 131.174 957.747 129.334 958.463 127.834C959.187 126.325 960.163 125.187 961.39 124.42C962.618 123.645 963.985 123.257 965.494 123.257C966.645 123.257 967.591 123.453 968.332 123.845C969.074 124.228 969.662 124.693 970.096 125.238C970.531 125.775 970.868 126.282 971.106 126.76H971.298V116.967H975.939V143.149H971.387V140.055H971.106C970.868 140.532 970.522 141.04 970.071 141.576C969.619 142.105 969.022 142.557 968.281 142.932C967.539 143.307 966.606 143.494 965.481 143.494ZM966.772 139.697C967.752 139.697 968.588 139.433 969.278 138.905C969.968 138.368 970.493 137.622 970.85 136.667C971.208 135.713 971.387 134.601 971.387 133.331C971.387 132.061 971.208 130.957 970.85 130.02C970.501 129.082 969.981 128.353 969.291 127.834C968.609 127.314 967.77 127.054 966.772 127.054C965.741 127.054 964.88 127.322 964.19 127.859C963.5 128.396 962.98 129.138 962.63 130.084C962.281 131.03 962.106 132.112 962.106 133.331C962.106 134.558 962.281 135.653 962.63 136.616C962.988 137.571 963.512 138.325 964.203 138.879C964.902 139.424 965.758 139.697 966.772 139.697ZM996.39 128.703L992.171 129.163C992.052 128.737 991.843 128.336 991.545 127.961C991.255 127.586 990.863 127.284 990.369 127.054C989.874 126.824 989.269 126.709 988.553 126.709C987.59 126.709 986.781 126.917 986.124 127.335C985.477 127.753 985.157 128.294 985.165 128.959C985.157 129.53 985.366 129.994 985.792 130.352C986.227 130.71 986.942 131.004 987.94 131.234L991.289 131.95C993.147 132.351 994.528 132.986 995.431 133.855C996.343 134.724 996.803 135.862 996.812 137.268C996.803 138.504 996.441 139.595 995.725 140.541C995.018 141.478 994.033 142.211 992.772 142.74C991.511 143.268 990.062 143.532 988.425 143.532C986.022 143.532 984.087 143.03 982.621 142.024C981.156 141.01 980.282 139.599 980.001 137.792L984.513 137.358C984.718 138.244 985.153 138.913 985.817 139.365C986.482 139.817 987.347 140.042 988.413 140.042C989.512 140.042 990.394 139.817 991.059 139.365C991.732 138.913 992.069 138.355 992.069 137.69C992.069 137.128 991.852 136.663 991.417 136.297C990.991 135.93 990.326 135.649 989.423 135.453L986.073 134.75C984.19 134.358 982.796 133.697 981.893 132.768C980.989 131.831 980.542 130.646 980.55 129.214C980.542 128.004 980.87 126.956 981.535 126.069C982.208 125.174 983.141 124.484 984.335 123.998C985.536 123.504 986.921 123.257 988.489 123.257C990.79 123.257 992.602 123.747 993.923 124.727C995.252 125.707 996.075 127.032 996.39 128.703ZM1019.36 123.513V127.092H1008.07V123.513H1019.36ZM1010.86 118.808H1015.49V137.243C1015.49 137.865 1015.58 138.342 1015.77 138.674C1015.97 138.998 1016.22 139.22 1016.54 139.339C1016.85 139.459 1017.2 139.518 1017.59 139.518C1017.88 139.518 1018.14 139.497 1018.38 139.454C1018.63 139.412 1018.81 139.373 1018.94 139.339L1019.72 142.957C1019.47 143.042 1019.12 143.136 1018.66 143.238C1018.21 143.341 1017.65 143.4 1017 143.417C1015.84 143.451 1014.79 143.277 1013.87 142.893C1012.94 142.501 1012.2 141.896 1011.65 141.078C1011.12 140.26 1010.85 139.237 1010.86 138.01V118.808ZM1028.28 131.643V143.149H1023.66V116.967H1028.18V126.849H1028.41C1028.87 125.741 1029.58 124.868 1030.55 124.228C1031.52 123.581 1032.75 123.257 1034.25 123.257C1035.62 123.257 1036.81 123.542 1037.82 124.113C1038.83 124.684 1039.62 125.52 1040.17 126.619C1040.73 127.719 1041.02 129.061 1041.02 130.646V143.149H1036.39V131.362C1036.39 130.041 1036.05 129.014 1035.37 128.281C1034.69 127.54 1033.75 127.169 1032.53 127.169C1031.71 127.169 1030.98 127.348 1030.33 127.706C1029.69 128.055 1029.19 128.562 1028.82 129.227C1028.46 129.892 1028.28 130.697 1028.28 131.643ZM1054.43 143.532C1052.46 143.532 1050.76 143.123 1049.33 142.305C1047.9 141.478 1046.81 140.311 1046.04 138.802C1045.27 137.285 1044.89 135.5 1044.89 133.446C1044.89 131.426 1045.27 129.653 1046.04 128.128C1046.82 126.594 1047.9 125.4 1049.29 124.548C1050.68 123.687 1052.31 123.257 1054.18 123.257C1055.39 123.257 1056.54 123.453 1057.61 123.845C1058.69 124.228 1059.65 124.825 1060.47 125.635C1061.31 126.444 1061.96 127.476 1062.44 128.728C1062.92 129.973 1063.16 131.456 1063.16 133.177V134.596H1047.06V131.477H1058.72C1058.71 130.591 1058.52 129.802 1058.15 129.112C1057.77 128.413 1057.25 127.863 1056.57 127.463C1055.91 127.062 1055.13 126.862 1054.25 126.862C1053.3 126.862 1052.47 127.092 1051.75 127.552C1051.04 128.004 1050.48 128.601 1050.08 129.342C1049.69 130.075 1049.49 130.88 1049.48 131.758V134.481C1049.48 135.623 1049.69 136.603 1050.11 137.422C1050.52 138.231 1051.11 138.853 1051.86 139.288C1052.61 139.714 1053.48 139.927 1054.49 139.927C1055.16 139.927 1055.77 139.834 1056.32 139.646C1056.86 139.45 1057.34 139.165 1057.74 138.79C1058.14 138.415 1058.44 137.95 1058.65 137.396L1062.97 137.882C1062.69 139.024 1062.17 140.021 1061.41 140.873C1060.65 141.717 1059.68 142.373 1058.49 142.842C1057.31 143.302 1055.95 143.532 1054.43 143.532ZM1067.07 143.149V123.513H1071.7V143.149H1067.07ZM1069.4 120.726C1068.67 120.726 1068.04 120.483 1067.51 119.997C1066.98 119.503 1066.72 118.91 1066.72 118.22C1066.72 117.521 1066.98 116.929 1067.51 116.443C1068.04 115.949 1068.67 115.701 1069.4 115.701C1070.14 115.701 1070.77 115.949 1071.29 116.443C1071.82 116.929 1072.08 117.521 1072.08 118.22C1072.08 118.91 1071.82 119.503 1071.29 119.997C1070.77 120.483 1070.14 120.726 1069.4 120.726ZM1076.46 143.149V123.513H1080.95V126.785H1081.15C1081.51 125.652 1082.12 124.778 1082.99 124.165C1083.87 123.542 1084.87 123.231 1086 123.231C1086.25 123.231 1086.54 123.244 1086.85 123.27C1087.18 123.287 1087.45 123.317 1087.66 123.359V127.616C1087.46 127.548 1087.15 127.488 1086.73 127.437C1086.31 127.378 1085.9 127.348 1085.51 127.348C1084.67 127.348 1083.91 127.531 1083.24 127.898C1082.57 128.255 1082.05 128.754 1081.66 129.393C1081.28 130.032 1081.09 130.77 1081.09 131.605V143.149H1076.46ZM1099.66 150.513V123.513H1104.21V126.76H1104.48C1104.72 126.282 1105.06 125.775 1105.49 125.238C1105.93 124.693 1106.52 124.228 1107.26 123.845C1108 123.453 1108.94 123.257 1110.09 123.257C1111.61 123.257 1112.98 123.645 1114.2 124.42C1115.43 125.187 1116.4 126.325 1117.11 127.834C1117.84 129.334 1118.2 131.174 1118.2 133.356C1118.2 135.513 1117.85 137.345 1117.14 138.853C1116.43 140.362 1115.47 141.513 1114.25 142.305C1113.03 143.098 1111.65 143.494 1110.11 143.494C1108.98 143.494 1108.05 143.307 1107.31 142.932C1106.57 142.557 1105.97 142.105 1105.52 141.576C1105.07 141.04 1104.73 140.532 1104.48 140.055H1104.29V150.513H1099.66ZM1104.2 133.331C1104.2 134.601 1104.38 135.713 1104.74 136.667C1105.1 137.622 1105.63 138.368 1106.31 138.905C1107 139.433 1107.84 139.697 1108.82 139.697C1109.84 139.697 1110.7 139.424 1111.39 138.879C1112.08 138.325 1112.6 137.571 1112.95 136.616C1113.3 135.653 1113.48 134.558 1113.48 133.331C1113.48 132.112 1113.31 131.03 1112.96 130.084C1112.61 129.138 1112.09 128.396 1111.4 127.859C1110.71 127.322 1109.85 127.054 1108.82 127.054C1107.83 127.054 1106.99 127.314 1106.3 127.834C1105.61 128.353 1105.08 129.082 1104.73 130.02C1104.38 130.957 1104.2 132.061 1104.2 133.331ZM1130.86 143.532C1128.89 143.532 1127.19 143.123 1125.76 142.305C1124.33 141.478 1123.24 140.311 1122.47 138.802C1121.7 137.285 1121.32 135.5 1121.32 133.446C1121.32 131.426 1121.7 129.653 1122.47 128.128C1123.25 126.594 1124.33 125.4 1125.72 124.548C1127.11 123.687 1128.74 123.257 1130.61 123.257C1131.82 123.257 1132.97 123.453 1134.04 123.845C1135.12 124.228 1136.08 124.825 1136.9 125.635C1137.74 126.444 1138.39 127.476 1138.87 128.728C1139.35 129.973 1139.59 131.456 1139.59 133.177V134.596H1123.49V131.477H1135.15C1135.14 130.591 1134.95 129.802 1134.58 129.112C1134.2 128.413 1133.68 127.863 1133 127.463C1132.34 127.062 1131.56 126.862 1130.68 126.862C1129.73 126.862 1128.9 127.092 1128.18 127.552C1127.47 128.004 1126.91 128.601 1126.51 129.342C1126.12 130.075 1125.92 130.88 1125.91 131.758V134.481C1125.91 135.623 1126.12 136.603 1126.54 137.422C1126.95 138.231 1127.54 138.853 1128.29 139.288C1129.04 139.714 1129.91 139.927 1130.92 139.927C1131.59 139.927 1132.2 139.834 1132.75 139.646C1133.29 139.45 1133.77 139.165 1134.17 138.79C1134.57 138.415 1134.87 137.95 1135.07 137.396L1139.4 137.882C1139.12 139.024 1138.6 140.021 1137.84 140.873C1137.08 141.717 1136.11 142.373 1134.92 142.842C1133.74 143.302 1132.38 143.532 1130.86 143.532ZM1152.2 143.532C1150.23 143.532 1148.53 143.123 1147.1 142.305C1145.67 141.478 1144.58 140.311 1143.81 138.802C1143.04 137.285 1142.66 135.5 1142.66 133.446C1142.66 131.426 1143.04 129.653 1143.81 128.128C1144.59 126.594 1145.67 125.4 1147.06 124.548C1148.45 123.687 1150.08 123.257 1151.95 123.257C1153.16 123.257 1154.31 123.453 1155.38 123.845C1156.46 124.228 1157.42 124.825 1158.24 125.635C1159.08 126.444 1159.73 127.476 1160.21 128.728C1160.69 129.973 1160.93 131.456 1160.93 133.177V134.596H1144.83V131.477H1156.49C1156.48 130.591 1156.29 129.802 1155.92 129.112C1155.54 128.413 1155.02 127.863 1154.34 127.463C1153.68 127.062 1152.9 126.862 1152.02 126.862C1151.07 126.862 1150.24 127.092 1149.52 127.552C1148.81 128.004 1148.25 128.601 1147.85 129.342C1147.46 130.075 1147.26 130.88 1147.25 131.758V134.481C1147.25 135.623 1147.46 136.603 1147.88 137.422C1148.29 138.231 1148.88 138.853 1149.63 139.288C1150.38 139.714 1151.25 139.927 1152.26 139.927C1152.93 139.927 1153.54 139.834 1154.09 139.646C1154.63 139.45 1155.11 139.165 1155.51 138.79C1155.91 138.415 1156.21 137.95 1156.41 137.396L1160.74 137.882C1160.46 139.024 1159.94 140.021 1159.18 140.873C1158.42 141.717 1157.45 142.373 1156.26 142.842C1155.08 143.302 1153.72 143.532 1152.2 143.532ZM1164.84 143.149V123.513H1169.33V126.785H1169.53C1169.89 125.652 1170.51 124.778 1171.38 124.165C1172.25 123.542 1173.25 123.231 1174.38 123.231C1174.64 123.231 1174.92 123.244 1175.24 123.27C1175.56 123.287 1175.83 123.317 1176.04 123.359V127.616C1175.85 127.548 1175.53 127.488 1175.11 127.437C1174.69 127.378 1174.29 127.348 1173.89 127.348C1173.05 127.348 1172.29 127.531 1171.62 127.898C1170.95 128.255 1170.43 128.754 1170.05 129.393C1169.66 130.032 1169.47 130.77 1169.47 131.605V143.149H1164.84ZM1194.64 128.703L1190.42 129.163C1190.3 128.737 1190.09 128.336 1189.79 127.961C1189.5 127.586 1189.11 127.284 1188.61 127.054C1188.12 126.824 1187.52 126.709 1186.8 126.709C1185.84 126.709 1185.03 126.917 1184.37 127.335C1183.72 127.753 1183.4 128.294 1183.41 128.959C1183.4 129.53 1183.61 129.994 1184.04 130.352C1184.47 130.71 1185.19 131.004 1186.19 131.234L1189.54 131.95C1191.39 132.351 1192.77 132.986 1193.68 133.855C1194.59 134.724 1195.05 135.862 1195.06 137.268C1195.05 138.504 1194.69 139.595 1193.97 140.541C1193.26 141.478 1192.28 142.211 1191.02 142.74C1189.76 143.268 1188.31 143.532 1186.67 143.532C1184.27 143.532 1182.33 143.03 1180.87 142.024C1179.4 141.01 1178.53 139.599 1178.25 137.792L1182.76 137.358C1182.96 138.244 1183.4 138.913 1184.06 139.365C1184.73 139.817 1185.59 140.042 1186.66 140.042C1187.76 140.042 1188.64 139.817 1189.31 139.365C1189.98 138.913 1190.31 138.355 1190.31 137.69C1190.31 137.128 1190.1 136.663 1189.66 136.297C1189.24 135.93 1188.57 135.649 1187.67 135.453L1184.32 134.75C1182.44 134.358 1181.04 133.697 1180.14 132.768C1179.24 131.831 1178.79 130.646 1178.8 129.214C1178.79 128.004 1179.12 126.956 1179.78 126.069C1180.45 125.174 1181.39 124.484 1182.58 123.998C1183.78 123.504 1185.17 123.257 1186.74 123.257C1189.04 123.257 1190.85 123.747 1192.17 124.727C1193.5 125.707 1194.32 127.032 1194.64 128.703ZM1202.8 116.967V119.575C1202.8 120.325 1202.65 121.105 1202.36 121.915C1202.08 122.716 1201.69 123.483 1201.2 124.216C1200.71 124.94 1200.14 125.562 1199.51 126.082L1197.37 124.689C1197.83 123.981 1198.24 123.219 1198.59 122.4C1198.94 121.574 1199.12 120.64 1199.12 119.601V116.967H1202.8ZM1209.25 116.967V119.575C1209.25 120.325 1209.11 121.105 1208.82 121.915C1208.54 122.716 1208.15 123.483 1207.66 124.216C1207.16 124.94 1206.6 125.562 1205.98 126.082L1203.83 124.689C1204.29 123.981 1204.7 123.219 1205.05 122.4C1205.4 121.574 1205.57 120.64 1205.57 119.601V116.967H1209.25ZM1211.99 143.43C1211.21 143.43 1210.55 143.157 1210 142.612C1209.44 142.067 1209.17 141.402 1209.18 140.618C1209.17 139.851 1209.44 139.194 1210 138.649C1210.55 138.103 1211.21 137.831 1211.99 137.831C1212.74 137.831 1213.39 138.103 1213.95 138.649C1214.51 139.194 1214.79 139.851 1214.8 140.618C1214.79 141.138 1214.66 141.611 1214.39 142.037C1214.14 142.463 1213.8 142.804 1213.37 143.059C1212.95 143.307 1212.49 143.43 1211.99 143.43Z" fill="#9C1717"/>
</svg>
